<?xml version="1.0" encoding="UTF-8" standalone="no"?>
<!-- Created with Inkscape (http://www.inkscape.org/) -->

<svg
   xmlns:dc="http://purl.org/dc/elements/1.1/"
   xmlns:cc="http://creativecommons.org/ns#"
   xmlns:rdf="http://www.w3.org/1999/02/22-rdf-syntax-ns#"
   xmlns:svg="http://www.w3.org/2000/svg"
   xmlns="http://www.w3.org/2000/svg"
   xmlns:sodipodi="http://sodipodi.sourceforge.net/DTD/sodipodi-0.dtd"
   xmlns:inkscape="http://www.inkscape.org/namespaces/inkscape"
   width="64"
   height="64"
   viewBox="0 0 16.933332 16.933333"
   version="1.1"
   id="svg1718"
   inkscape:version="0.92.2 5c3e80d, 2017-08-06"
   sodipodi:docname="antitech.svg">
  <defs
     id="defs1712" />
  <sodipodi:namedview
     id="base"
     pagecolor="#ffffff"
     bordercolor="#666666"
     borderopacity="1.0"
     inkscape:pageopacity="0.0"
     inkscape:pageshadow="2"
     inkscape:zoom="2.8"
     inkscape:cx="-50.428026"
     inkscape:cy="-19.18571"
     inkscape:document-units="px"
     inkscape:current-layer="layer1"
     showgrid="false"
     fit-margin-top="0"
     fit-margin-left="0"
     fit-margin-right="0"
     fit-margin-bottom="0"
     inkscape:window-width="1195"
     inkscape:window-height="1024"
     inkscape:window-x="726"
     inkscape:window-y="2"
     inkscape:window-maximized="0"
     inkscape:snap-global="false"
     units="px" />
  <metadata
     id="metadata1715">
    <rdf:RDF>
      <cc:Work
         rdf:about="">
        <dc:format>image/svg+xml</dc:format>
        <dc:type
           rdf:resource="http://purl.org/dc/dcmitype/StillImage" />
        <dc:title></dc:title>
      </cc:Work>
    </rdf:RDF>
  </metadata>
  <g
     inkscape:label="Layer 1"
     inkscape:groupmode="layer"
     id="layer1"
     transform="translate(-59.978699,-127.06573)">
    <path
       style="display:inline;fill:#ffd27d;fill-opacity:1;stroke:#ff7305;stroke-width:1.51164722;stroke-linecap:butt;stroke-linejoin:round;stroke-miterlimit:8;stroke-dasharray:none;stroke-opacity:1;paint-order:markers stroke fill"
       d="m 69.034802,128.64192 c -0.805717,4.51457 2.61352,4.30094 2.201722,6.66453 -0.280714,1.94766 -1.792134,4.64242 -3.77904,4.58266 -4.999296,0.06 -4.795809,-4.13458 -4.426937,-6.12259 0.370187,-1.82929 1.026659,-3.41633 2.652067,-4.10638 -0.453917,1.73624 0.820315,2.03119 1.415556,3.3268 -0.864461,-3.2044 1.006612,-2.96947 1.936632,-4.34502 z"
       id="path1554"
       inkscape:connector-curvature="0"
       sodipodi:nodetypes="ccccccc" />
    <path
       style="display:inline;fill:#fffbcf;fill-opacity:1;stroke:none;stroke-width:0.13848914px;stroke-linecap:butt;stroke-linejoin:miter;stroke-opacity:1"
       d="m 69.368853,134.05365 c -0.206482,1.7943 0.106186,2.4595 -1.128583,3.40202 0.05213,0.96194 0.458552,1.15215 0.859873,1.35349 0.442347,-0.0834 0.895003,-0.12478 1.128583,-1.06084 0.02691,-1.34797 -0.105166,-2.6369 -0.859873,-3.69467 z"
       id="path1556"
       inkscape:connector-curvature="0"
       sodipodi:nodetypes="ccccc" />
    <g
       transform="matrix(0.59033949,0.11531705,-0.11531705,0.59033949,12.822417,-37.289969)"
       style="display:inline;stroke-width:0.13229167;stroke-miterlimit:4;stroke-dasharray:none"
       id="g5824-3-1">
      <rect
         style="opacity:1;vector-effect:none;fill:#ffffff;fill-opacity:1;stroke:none;stroke-width:0.04938076;stroke-linecap:round;stroke-linejoin:miter;stroke-miterlimit:4;stroke-dasharray:none;stroke-dashoffset:0;stroke-opacity:1;paint-order:markers stroke fill"
         id="rect5820-6-8"
         width="10.28327"
         height="3.2835689"
         x="253.09183"
         y="166.69397"
         transform="rotate(28.589508)" />
      <path
         style="color:#000000;font-style:normal;font-variant:normal;font-weight:normal;font-stretch:normal;font-size:medium;line-height:normal;font-family:sans-serif;font-variant-ligatures:normal;font-variant-position:normal;font-variant-caps:normal;font-variant-numeric:normal;font-variant-alternates:normal;font-feature-settings:normal;text-indent:0;text-align:start;text-decoration:none;text-decoration-line:none;text-decoration-style:solid;text-decoration-color:#000000;letter-spacing:normal;word-spacing:normal;text-transform:none;writing-mode:lr-tb;direction:ltr;text-orientation:mixed;dominant-baseline:auto;baseline-shift:baseline;text-anchor:start;white-space:normal;shape-padding:0;clip-rule:nonzero;display:inline;overflow:visible;visibility:visible;opacity:1;isolation:auto;mix-blend-mode:normal;color-interpolation:sRGB;color-interpolation-filters:linearRGB;solid-color:#000000;solid-opacity:1;vector-effect:none;fill:#839aae;fill-opacity:1;fill-rule:nonzero;stroke:none;stroke-width:1.03699577;stroke-linecap:round;stroke-linejoin:miter;stroke-miterlimit:4;stroke-dasharray:none;stroke-dashoffset:0;stroke-opacity:1;paint-order:markers stroke fill;color-rendering:auto;image-rendering:auto;shape-rendering:auto;text-rendering:auto;enable-background:accumulate"
         d="m 148.43174,257.98283 c -1.25325,-0.68299 -2.834,-0.21744 -3.51699,1.0358 l -5.21046,9.56083 c -0.68299,1.25325 -0.21744,2.83398 1.03581,3.51698 l 8.195,4.46611 c 0.49656,0.27063 1.13616,0.0823 1.40679,-0.41431 l 0.1133,-0.20791 0.13481,-0.24737 1.28944,-2.36603 0.22563,-0.41401 4.93598,-9.05719 c 0.27062,-0.49656 0.0822,-1.13616 -0.41433,-1.40679 z m -0.49624,0.91055 8.19499,4.46611 -4.93598,9.0572 -0.22563,0.414 -1.28944,2.36603 -0.13481,0.24738 -0.1133,0.2079 -8.195,-4.46611 c -0.76455,-0.41666 -1.03816,-1.34564 -0.62149,-2.1102 l 5.21046,-9.56083 c 0.41667,-0.76454 1.34565,-1.03814 2.1102,-0.62148 z"
         id="rect5820-6-2-7"
         inkscape:connector-curvature="0" />
      <path
         style="opacity:1;vector-effect:none;fill:#e7f0f7;fill-opacity:1;fill-rule:nonzero;stroke:none;stroke-width:0.04938076;stroke-linecap:round;stroke-linejoin:miter;stroke-miterlimit:4;stroke-dasharray:none;stroke-dashoffset:0;stroke-opacity:1;paint-order:markers stroke fill"
         d="m 148.19255,258.85297 c -0.96086,-0.52364 -2.15596,-0.17167 -2.6796,0.78919 l -2.48803,4.56535 -2.47432,4.5402 c -0.52364,0.96085 -0.17167,2.15596 0.78918,2.6796 l 7.8048,4.25347 c 0.24021,0.1309 0.53899,0.0429 0.6699,-0.19731 l 0.2363,-0.4336 c 0.12611,-0.2314 0.036,-0.54273 -0.19729,-0.66989 l -7.53482,-4.10632 c -0.38414,-0.20821 -0.52588,-0.68903 -0.3168,-1.07268 0.20908,-0.38365 0.68981,-0.52484 1.07315,-0.31518 l 7.53482,4.10633 c 0.2343,0.12769 0.54307,0.0354 0.66897,-0.1956 l 4.91583,-9.0202 c 0.13091,-0.24021 0.0429,-0.53899 -0.19729,-0.66989 z"
         id="rect1865-0-2-6-9"
         inkscape:connector-curvature="0"
         sodipodi:nodetypes="cscsccscccscccccc" />
    </g>
  </g>
</svg>
