<?xml version="1.0" encoding="UTF-8" standalone="no"?>
<!-- Created with Inkscape (http://www.inkscape.org/) -->

<svg
   xmlns:dc="http://purl.org/dc/elements/1.1/"
   xmlns:cc="http://creativecommons.org/ns#"
   xmlns:rdf="http://www.w3.org/1999/02/22-rdf-syntax-ns#"
   xmlns:svg="http://www.w3.org/2000/svg"
   xmlns="http://www.w3.org/2000/svg"
   xmlns:sodipodi="http://sodipodi.sourceforge.net/DTD/sodipodi-0.dtd"
   xmlns:inkscape="http://www.inkscape.org/namespaces/inkscape"
   width="64"
   height="64"
   viewBox="0 0 16.933332 16.933333"
   version="1.1"
   id="svg1718"
   inkscape:version="0.92.2 5c3e80d, 2017-08-06"
   sodipodi:docname="exploded.svg">
  <defs
     id="defs1712" />
  <sodipodi:namedview
     id="base"
     pagecolor="#ffffff"
     bordercolor="#666666"
     borderopacity="1.0"
     inkscape:pageopacity="0.0"
     inkscape:pageshadow="2"
     inkscape:zoom="2.8"
     inkscape:cx="-50.428026"
     inkscape:cy="-19.18571"
     inkscape:document-units="px"
     inkscape:current-layer="layer1"
     showgrid="false"
     fit-margin-top="0"
     fit-margin-left="0"
     fit-margin-right="0"
     fit-margin-bottom="0"
     inkscape:window-width="1852"
     inkscape:window-height="986"
     inkscape:window-x="0"
     inkscape:window-y="0"
     inkscape:window-maximized="0"
     inkscape:snap-global="false"
     units="px" />
  <metadata
     id="metadata1715">
    <rdf:RDF>
      <cc:Work
         rdf:about="">
        <dc:format>image/svg+xml</dc:format>
        <dc:type
           rdf:resource="http://purl.org/dc/dcmitype/StillImage" />
        <dc:title></dc:title>
      </cc:Work>
    </rdf:RDF>
  </metadata>
  <g
     inkscape:label="Layer 1"
     inkscape:groupmode="layer"
     id="layer1"
     transform="translate(-59.978699,-127.06573)">
    <path
       style="fill:#ff5b05;fill-opacity:1;stroke:#bf4200;stroke-width:1.68407285;stroke-linecap:butt;stroke-linejoin:miter;stroke-miterlimit:4;stroke-dasharray:none;stroke-opacity:1;paint-order:markers stroke fill"
       d="m 69.733665,137.30047 5.210127,0.51223 -1.072672,2.7148 z"
       id="path935"
       inkscape:connector-curvature="0" />
    <path
       style="fill:#ff5b05;fill-opacity:1;stroke:#bf4200;stroke-width:1.68407285;stroke-linecap:butt;stroke-linejoin:miter;stroke-miterlimit:4;stroke-dasharray:none;stroke-opacity:1;paint-order:markers stroke fill"
       d="m 66.788663,137.33514 -4.391871,2.93973 2.041609,1.79403 z"
       id="path937"
       inkscape:connector-curvature="0"
       sodipodi:nodetypes="cccc" />
    <path
       style="fill:#ff5b05;fill-opacity:1;stroke:#bf4200;stroke-width:1.68407285;stroke-linecap:butt;stroke-linejoin:miter;stroke-miterlimit:4;stroke-dasharray:none;stroke-opacity:1;paint-order:markers stroke fill"
       d="m 66.923599,133.4805 -2.605064,-3.38071 2.827442,-1.09326 z"
       id="path939"
       inkscape:connector-curvature="0"
       sodipodi:nodetypes="cccc" />
    <path
       style="opacity:1;vector-effect:none;fill:#ffa735;fill-opacity:1;stroke:#ff5b05;stroke-width:1.68407285;stroke-linecap:round;stroke-linejoin:round;stroke-miterlimit:4;stroke-dasharray:none;stroke-dashoffset:0;stroke-opacity:1;paint-order:markers stroke fill"
       d="m 69.088259,131.34724 a 1.7970219,1.8002974 0 0 0 -1.792987,1.72344 1.7970219,1.8002974 0 0 0 -1.108535,-0.38576 1.7970219,1.8002974 0 0 0 -1.797068,1.80034 1.7970219,1.8002974 0 0 0 0.171879,0.76362 1.7970219,1.8002974 0 0 0 -0.913708,1.56529 1.7970219,1.8002974 0 0 0 1.797068,1.80036 1.7970219,1.8002974 0 0 0 1.009591,-0.31322 1.7970219,1.8002974 0 0 0 -0.102771,0.59397 1.7970219,1.8002974 0 0 0 1.796812,1.8001 1.7970219,1.8002974 0 0 0 1.790183,-1.65959 1.7970219,1.8002974 0 0 0 0.798184,0.18982 1.7970219,1.8002974 0 0 0 1.797068,-1.80033 1.7970219,1.8002974 0 0 0 -0.438364,-1.1752 1.7970219,1.8002974 0 0 0 1.724388,-1.79777 1.7970219,1.8002974 0 0 0 -1.797066,-1.80035 1.7970219,1.8002974 0 0 0 -1.140413,0.4108 1.7970219,1.8002974 0 0 0 -1.794261,-1.71552 z"
       id="path4574"
       inkscape:connector-curvature="0" />
    <path
       style="opacity:1;vector-effect:none;fill:#ffffff;fill-opacity:1;stroke:#ffe55a;stroke-width:1.68407285;stroke-linecap:round;stroke-linejoin:round;stroke-miterlimit:4;stroke-dasharray:none;stroke-dashoffset:0;stroke-opacity:1;paint-order:markers stroke fill"
       d="m 68.194031,133.28025 c -0.620113,-1.1e-4 -1.122836,0.50783 -1.122738,1.13437 4.9e-4,0.0866 0.01083,0.17295 0.03077,0.25723 -0.05726,-0.009 -0.11499,-0.0126 -0.172825,-0.0132 -0.721821,1.2e-4 -1.306941,0.59131 -1.307062,1.32062 -5.1e-5,0.72944 0.585121,1.32083 1.307062,1.32094 0.484019,-2.4e-4 0.928299,-0.27065 1.154755,-0.70287 0.113483,0.81418 0.80258,1.4199 1.616344,1.42082 0.902457,-3e-5 1.634038,-0.73921 1.634063,-1.65102 -2.5e-5,-0.91182 -0.731606,-1.651 -1.634063,-1.65101 -0.150186,0 -0.299653,0.0209 -0.444184,0.0622 0.03961,-0.1171 0.05997,-0.23994 0.0603,-0.36369 9.8e-5,-0.62642 -0.502436,-1.1343 -1.122428,-1.13438 z"
       id="path928"
       inkscape:connector-curvature="0"
       sodipodi:nodetypes="ccccccccccccc" />
  </g>
</svg>
