<?xml version="1.0" encoding="UTF-8" standalone="no"?>
<!-- Created with Inkscape (http://www.inkscape.org/) -->

<svg
   xmlns:dc="http://purl.org/dc/elements/1.1/"
   xmlns:cc="http://creativecommons.org/ns#"
   xmlns:rdf="http://www.w3.org/1999/02/22-rdf-syntax-ns#"
   xmlns:svg="http://www.w3.org/2000/svg"
   xmlns="http://www.w3.org/2000/svg"
   xmlns:sodipodi="http://sodipodi.sourceforge.net/DTD/sodipodi-0.dtd"
   xmlns:inkscape="http://www.inkscape.org/namespaces/inkscape"
   width="64"
   height="64"
   viewBox="0 0 16.933332 16.933333"
   version="1.1"
   id="svg1718"
   inkscape:version="0.92.2 5c3e80d, 2017-08-06"
   sodipodi:docname="mana_drain.svg">
  <defs
     id="defs1712" />
  <sodipodi:namedview
     id="base"
     pagecolor="#ffffff"
     bordercolor="#666666"
     borderopacity="1.0"
     inkscape:pageopacity="0.0"
     inkscape:pageshadow="2"
     inkscape:zoom="2.8"
     inkscape:cx="-50.428026"
     inkscape:cy="-19.18571"
     inkscape:document-units="px"
     inkscape:current-layer="layer1"
     showgrid="false"
     fit-margin-top="0"
     fit-margin-left="0"
     fit-margin-right="0"
     fit-margin-bottom="0"
     inkscape:window-width="1195"
     inkscape:window-height="1024"
     inkscape:window-x="726"
     inkscape:window-y="2"
     inkscape:window-maximized="0"
     inkscape:snap-global="false"
     units="px" />
  <metadata
     id="metadata1715">
    <rdf:RDF>
      <cc:Work
         rdf:about="">
        <dc:format>image/svg+xml</dc:format>
        <dc:type
           rdf:resource="http://purl.org/dc/dcmitype/StillImage" />
        <dc:title></dc:title>
      </cc:Work>
    </rdf:RDF>
  </metadata>
  <g
     inkscape:label="Layer 1"
     inkscape:groupmode="layer"
     id="layer1"
     transform="translate(-59.978699,-127.06573)">
    <path
       style="opacity:1;fill:#9f8d8d;fill-opacity:1;fill-rule:nonzero;stroke:none;stroke-width:0.24919322;stroke-linecap:round;stroke-miterlimit:4;stroke-dasharray:none;stroke-dashoffset:0;stroke-opacity:1;paint-order:markers stroke fill"
       id="path9768"
       d="m 71.309988,128.47951 c -0.04581,0.0214 -0.0926,0.0417 -0.134902,0.0666 -0.03519,0.0116 -0.05951,0.0342 -0.09352,0.0467 -0.0044,0.003 -0.0084,0.006 -0.01324,0.008 -0.0041,0.002 -0.0094,0.002 -0.01343,0.004 -0.01805,0.009 -0.03071,0.021 -0.0508,0.0279 -0.04283,0.0272 0.01658,-0.009 -0.0248,0.0118 -0.0041,0.002 -0.0066,0.005 -0.01069,0.008 -0.0036,0.002 -0.0083,0.002 -0.0117,0.003 -0.03045,0.0172 0.01012,3.9e-4 -0.02052,0.0121 -0.02926,0.0274 0.01028,-0.007 -0.0194,0.0127 -0.0036,0.002 -0.005,0.006 -0.0085,0.009 -0.0029,0.002 -0.0075,0.002 -0.01034,0.004 -0.02428,0.0171 0.007,0.002 -0.01863,0.0132 -0.0168,0.005 -0.02259,0.0191 -0.03219,0.0293 -0.02605,0.0277 0.01017,-0.0206 -0.0159,0.0161 -0.0032,0.002 -0.0068,0.003 -0.0094,0.006 -0.0032,0.003 -0.0044,0.007 -0.0077,0.009 -0.0026,0.002 -0.0068,0.003 -0.0098,0.005 -0.01213,0.008 -0.02132,0.0147 -0.02936,0.0248 -0.02257,0.0143 -0.03331,0.0342 -0.05137,0.0513 -0.002,0.0122 -0.01717,0.0182 -0.02484,0.0278 -0.0065,0.008 -0.01534,0.0216 -0.02017,0.0305 -0.02273,0.0138 -0.03223,0.0317 -0.04403,0.0508 -0.0064,0.0221 -0.01901,0.0429 -0.02779,0.0647 -0.0022,0.0221 -0.01598,0.0421 -0.02194,0.0639 -0.0053,0.0246 -0.0055,0.0496 -0.0059,0.0744 -2.31e-4,0.0265 -8.4e-5,0.0531 -2.3e-5,0.0797 6.2e-5,0.0266 7.8e-5,0.0533 8.9e-5,0.0798 7e-6,0.0265 7e-6,0.0531 6e-6,0.0797 -0.0011,0.024 0.0014,0.048 1.17e-4,0.0719 0.0062,0.0242 0.01199,0.0486 0.01521,0.0731 0.0029,0.0269 0.0032,0.0538 0.0033,0.0807 1.03e-4,0.0266 1.8e-5,0.0532 -2.3e-5,0.0799 -3.7e-5,0.0265 -4.6e-5,0.0532 -5.3e-5,0.0797 -4e-6,0.0265 -2e-6,0.0531 -2e-6,0.0797 v 0.0797 c 5.5e-4,0.0283 0.0011,0.0563 -0.0054,0.0842 -0.0038,0.0271 -0.01544,0.0529 -0.02332,0.0794 -0.0023,0.0245 -0.01646,0.0469 -0.02131,0.0712 -0.0079,0.0271 -0.02058,0.0531 -0.03012,0.0799 -0.01232,0.0283 -0.03313,0.0543 -0.04645,0.0825 -0.01185,0.0224 -0.03077,0.0405 -0.05186,0.0588 -0.01266,0.0241 -0.03532,0.0446 -0.05166,0.0673 -0.0179,0.0106 -0.02331,0.0265 -0.03614,0.0397 -0.0065,0.007 -0.01448,0.0124 -0.02103,0.019 -0.02191,0.0232 -0.04624,0.0447 -0.07095,0.0664 -0.01831,0.0221 -0.04774,0.0371 -0.06834,0.0579 -0.01559,0.006 -0.02375,0.0175 -0.03546,0.0263 -0.01522,0.0114 -0.02415,0.0127 -0.03907,0.0272 -0.02877,0.0239 -0.05923,0.0464 -0.08875,0.0696 -0.01766,0.0164 -0.0407,0.0279 -0.06268,0.0406 -0.04104,0.024 0.01132,-0.002 -0.02738,0.0164 -0.04312,0.0348 0.01724,-0.0123 -0.02319,0.0149 -0.0038,0.002 -0.0059,0.006 -0.0097,0.009 -0.0032,0.002 -0.0078,0.003 -0.01087,0.005 -0.0073,0.005 -0.01278,0.0115 -0.02009,0.0166 -0.02233,0.01 -0.03694,0.0268 -0.05771,0.0379 -0.0047,0.002 -0.01031,0.003 -0.01547,0.006 -0.0046,0.003 -0.0092,0.005 -0.01379,0.008 -0.0051,0.002 -0.0101,0.004 -0.01542,0.007 -0.0048,0.001 -0.01047,0.002 -0.01508,0.004 -0.01926,0.009 -0.0065,0.007 -0.02484,0.017 -0.0082,0.004 -0.01814,0.007 -0.02689,0.0104 -0.0187,0.0196 -0.05179,0.0249 -0.07512,0.0397 l -0.738107,0.30651 c -0.0044,0.002 -0.01771,0.007 -0.01329,0.005 0.236776,-0.0977 0.944018,-0.39445 0.710344,-0.29303 -0.243693,0.10577 -0.491548,0.20663 -0.740414,0.30609 -0.233507,0.0933 0.908958,-0.40141 0.695512,-0.28622 -0.24671,0.10177 -0.4923,0.20493 -0.740126,0.30531 -0.0054,0.002 -0.01258,2.5e-4 -0.0183,0.002 -0.0048,10e-4 -0.01662,0.009 -0.01216,0.007 0.238162,-0.097 0.475367,-0.19517 0.713365,-0.29237 0.0048,-0.002 -0.0091,0.004 -0.01392,0.007 -0.247193,0.10119 -0.4948,0.20187 -0.742199,0.3028 0.960674,-0.39295 0.951229,-0.38976 -0.02581,0.0127 -0.102412,-0.0127 0.593965,-0.35196 -0.0236,-0.0979 -0.0047,0.002 0.0098,-0.003 0.0145,-0.005 -0.08991,0.0761 1.11084,-0.45625 0.0583,-0.0208 0.01536,-0.007 0.02927,-0.0145 0.04459,-0.0209 -0.577115,0.33327 0.979169,-0.40502 0.04117,-0.0154 0.03836,-0.0151 -0.01544,0.008 0.02253,-0.0142 0.004,-0.002 0.0097,-0.002 0.01395,-0.004 0.0046,-0.002 0.0074,-0.006 0.01225,-0.008 0.0094,-0.003 0.0225,-10e-4 0.03,-0.008 0.0022,-0.002 0.01958,-0.0164 0.02276,-0.0178 0.0046,-0.002 0.01054,-0.002 0.01536,-0.003 0.01759,-0.006 0.02182,-0.0196 0.04004,-0.0253 0.02141,-0.007 0.01125,-0.003 0.03025,-0.0141 0.0056,-0.002 0.01235,-0.002 0.0182,-0.004 0.01737,-0.005 0.02866,-0.0151 0.04248,-0.0239 0.0073,-0.003 0.01645,-0.006 0.02292,-0.0108 0.0038,-0.003 0.0048,-0.007 0.0085,-0.01 0.0033,-0.002 0.0088,-0.003 0.01217,-0.005 0.03159,-0.0224 -0.01259,4.1e-4 0.02334,-0.0167 0.02837,-0.0263 -0.0058,0.003 0.02745,-0.0188 0.0054,-0.003 0.0088,-0.008 0.0142,-0.0118 0.01557,-0.0101 0.03749,-0.0137 0.05031,-0.0262 0.01026,-0.007 0.02178,-0.0122 0.03089,-0.0195 0.0053,-0.004 0.0087,-0.01 0.01385,-0.0139 0.01373,-0.0116 0.03156,-0.0207 0.04583,-0.0319 0.0248,-0.0171 0.0039,-6.7e-4 0.02335,-0.0228 0.0124,-0.0141 0.03676,-0.0194 0.04656,-0.0357 0.01934,-0.008 0.01981,-0.0152 0.03455,-0.0253 0.004,-0.003 0.0098,-0.003 0.01376,-0.007 0.038,-0.0259 -0.01506,0.003 0.02624,-0.0183 0.008,-0.008 0.01432,-0.016 0.02286,-0.0231 0.0036,-0.003 0.02313,-0.0142 0.02657,-0.0174 0.0042,-0.003 0.0062,-0.009 0.0101,-0.0132 0.0034,-0.003 0.008,-0.007 0.01193,-0.0101 0.0069,-0.007 0.01181,-0.0144 0.01904,-0.021 0.0055,-0.005 0.01668,-0.009 0.02139,-0.0144 0.0033,-0.003 0.0046,-0.009 0.0068,-0.013 0.0032,-0.003 0.0064,-0.007 0.0095,-0.011 0.02356,-0.0152 0.03751,-0.0393 0.05739,-0.0569 0.0066,-0.0159 0.01568,-0.031 0.03153,-0.0434 0.0032,-0.002 0.0085,-0.003 0.0116,-0.006 0.0038,-0.003 0.0056,-0.008 0.0084,-0.0113 0.02534,-0.0214 0.0285,-0.0515 0.05253,-0.0738 0.01524,-0.0237 0.02228,-0.0498 0.0323,-0.0747 0.01206,-0.0213 0.0055,-0.0468 0.02531,-0.0665 0.0021,-0.0143 0.0044,-0.0285 0.0092,-0.0426 0.0015,-0.004 0.0033,-0.009 0.0051,-0.0129 0.002,-0.003 0.0048,-0.007 0.0061,-0.0109 0.0015,-0.004 0.0016,-0.009 0.0024,-0.0138 0.0029,-0.0117 0.0093,-0.0238 0.01152,-0.0352 0.0024,-0.013 -0.002,-0.0268 0,-0.0399 l -10e-7,-0.0797 c 0,-0.0265 -10e-7,-0.0531 0,-0.0797 10e-7,-0.0267 3e-6,-0.0531 2.7e-5,-0.0798 2.9e-5,-0.0266 8.3e-5,-0.0531 1.43e-4,-0.0797 2.5e-5,-0.0257 1.76e-4,-0.0512 -0.001,-0.0768 -0.0015,-0.0232 -0.0044,-0.0466 -0.0134,-0.0691 -0.0085,-0.0262 -0.0029,-0.0533 -0.0044,-0.08 10e-7,-0.0265 2e-6,-0.0531 2e-6,-0.0797 -10e-7,-0.0266 -10e-7,-0.0531 -3.3e-5,-0.0797 -3.8e-5,-0.0266 -1.08e-4,-0.0533 -2.3e-4,-0.0799 -1.03e-4,-0.0266 -3.72e-4,-0.0534 8.71e-4,-0.0801 0.0015,-0.0226 0.0014,-0.0475 0.01966,-0.0669 0.0016,-0.0128 0.0029,-0.0258 0.0081,-0.0381 0.0015,-0.003 0.0036,-0.007 0.0055,-0.0106 0.0024,-0.003 0.0059,-0.005 0.0073,-0.009 0.002,-0.004 0.0018,-0.009 0.0027,-0.0141 0.0036,-0.0127 0.0101,-0.0235 0.01506,-0.0357 0.0047,-0.0115 0.0032,-0.0241 0.01516,-0.0338 0.02031,-0.009 0.002,6.7e-4 0.01728,-0.0147 0.0024,-0.003 0.0073,-0.003 0.0095,-0.007 0.0082,-0.0104 0.0069,-0.0231 0.02412,-0.0297 0.0058,-0.0101 0.01339,-0.0216 0.02206,-0.0307 0.0024,-0.003 0.0074,-0.003 0.0095,-0.007 0.0057,-0.007 0.004,-0.0171 0.01359,-0.0231 0.01721,-0.0106 0.01934,-0.0257 0.03434,-0.036 0.0029,-0.002 0.0081,-0.001 0.01102,-0.003 0.0034,-0.002 0.005,-0.006 0.0074,-0.009 0.02428,-0.009 -0.0022,0.003 0.0178,-0.0129 0.0027,-0.002 0.0077,-0.002 0.01025,-0.004 0.0032,-0.003 0.0033,-0.007 0.0062,-0.01 0.01711,-0.0175 0.0029,0.01 0.01396,-0.018 0.02256,-0.0277 -0.0076,0.005 0.01855,-0.0134 0.0036,-0.002 0.004,-0.007 0.0076,-0.009 0.0029,-0.002 0.0081,-0.002 0.01105,-0.004 0.02456,-0.0179 -0.0091,-0.003 0.01885,-0.0139 0.02212,-0.0265 -0.0066,0.004 0.01954,-0.0143 0.0038,-0.003 0.0048,-0.007 0.0087,-0.01 0.0033,-0.002 0.0089,-0.003 0.01235,-0.005 0.02704,-0.0178 -0.0077,-0.003 0.02366,-0.0149 0.0039,-0.003 0.0069,-0.007 0.01162,-0.009 0.0044,-0.002 0.01033,-0.002 0.01497,-0.004 0.0046,-0.002 0.0081,-0.005 0.01244,-0.007 0.0041,-0.002 0.0092,-0.003 0.01288,-0.005 0.0044,-0.003 0.0065,-0.007 0.01103,-0.01 0.0044,-0.003 0.0099,-0.003 0.01491,-0.006 0.02667,-0.0188 -6.03e-4,-0.002 0.03088,-0.015 0.0172,-0.007 0.03213,-0.0162 0.04667,-0.0258 0.0054,-0.003 0.01118,-0.007 0.01676,-0.0103 0.02764,-0.01 0.04126,-0.0194 0.06508,-0.0327 0.03077,-0.0172 0.01759,-0.007 0.04857,-0.0217 0.0064,-0.003 0.01206,-0.007 0.0181,-0.0104 l 0.790217,-0.22057 z"
       inkscape:connector-curvature="0"
       sodipodi:nodetypes="ccccccccccccccccccccccccccccccccccccccccccccccccccccccccccccccccccccccccccccccccccccccccccccccccccccccccccccccccccccccccccccccccccccccccccccccccccccccccccccccccccccccccccccccccccccc" />
    <rect
       style="opacity:1;fill:#c6f9fd;fill-opacity:1;fill-rule:nonzero;stroke:#2b94ff;stroke-width:0.88635415;stroke-linecap:square;stroke-miterlimit:4;stroke-dasharray:none;stroke-dashoffset:0;stroke-opacity:1;paint-order:markers stroke fill"
       id="rect8440"
       width="4.3209014"
       height="6.6156769"
       x="66.278236"
       y="134.23915" />
    <ellipse
       style="opacity:1;fill:#c6f9fd;fill-opacity:1;fill-rule:nonzero;stroke:#2b94ff;stroke-width:0.88635415;stroke-linecap:square;stroke-miterlimit:4;stroke-dasharray:none;stroke-dashoffset:0;stroke-opacity:1;paint-order:markers stroke fill"
       id="path8438"
       cx="68.43869"
       cy="133.81561"
       rx="2.1595356"
       ry="1.1877059" />
    <path
       style="fill:none;fill-rule:evenodd;stroke:#000000;stroke-width:0.53181249;stroke-linecap:round;stroke-linejoin:miter;stroke-miterlimit:4;stroke-dasharray:none;stroke-opacity:1"
       d="m 68.35393,133.67888 c -0.02071,-1.19361 0.683484,-2.53412 0.683484,-2.53412"
       id="path8442"
       inkscape:connector-curvature="0" />
    <path
       style="fill:#e4dfdf;fill-opacity:1;fill-rule:evenodd;stroke:#959595;stroke-width:0.53181249;stroke-linecap:butt;stroke-linejoin:miter;stroke-miterlimit:4;stroke-dasharray:none;stroke-opacity:1"
       d="m 61.795951,140.81771 c -0.308556,-0.45462 -0.325418,-1.18936 0.379974,-1.45085 1.901089,-0.70476 4.215617,1.15535 6.464588,1.13406 2.128744,-0.0202 4.133608,-1.72434 6.056667,-1.18875 0.710464,0.19787 0.962731,0.83953 0.832926,1.29434 -0.131939,0.46229 -0.841666,0.84499 -1.531022,1.08239 -1.487527,0.51226 -3.363283,0.54571 -5.088391,0.55439 -1.719876,0.009 -3.513625,-0.0961 -5.088392,-0.5016 -0.783476,-0.20172 -1.709985,-0.45786 -2.02635,-0.92398 z"
       id="path8728"
       inkscape:connector-curvature="0"
       sodipodi:nodetypes="aaaaaaaaa" />
  </g>
</svg>
