<?xml version="1.0" encoding="UTF-8" standalone="no"?>
<!-- Created with Inkscape (http://www.inkscape.org/) -->

<svg
   xmlns:dc="http://purl.org/dc/elements/1.1/"
   xmlns:cc="http://creativecommons.org/ns#"
   xmlns:rdf="http://www.w3.org/1999/02/22-rdf-syntax-ns#"
   xmlns:svg="http://www.w3.org/2000/svg"
   xmlns="http://www.w3.org/2000/svg"
   xmlns:sodipodi="http://sodipodi.sourceforge.net/DTD/sodipodi-0.dtd"
   xmlns:inkscape="http://www.inkscape.org/namespaces/inkscape"
   width="64"
   height="64"
   viewBox="0 0 16.933332 16.933333"
   version="1.1"
   id="svg1718"
   inkscape:version="0.92.2 2405546, 2018-03-11"
   sodipodi:docname="placeholder.svg">
  <defs
     id="defs1712" />
  <sodipodi:namedview
     id="base"
     pagecolor="#ffffff"
     bordercolor="#666666"
     borderopacity="1.0"
     inkscape:pageopacity="0.0"
     inkscape:pageshadow="2"
     inkscape:zoom="5.6"
     inkscape:cx="2.5891784"
     inkscape:cy="8.8987123"
     inkscape:document-units="px"
     inkscape:current-layer="layer1"
     showgrid="false"
     fit-margin-top="0"
     fit-margin-left="0"
     fit-margin-right="0"
     fit-margin-bottom="0"
     inkscape:window-width="1920"
     inkscape:window-height="1052"
     inkscape:window-x="0"
     inkscape:window-y="0"
     inkscape:window-maximized="1"
     inkscape:snap-global="false"
     units="px" />
  <metadata
     id="metadata1715">
    <rdf:RDF>
      <cc:Work
         rdf:about="">
        <dc:format>image/svg+xml</dc:format>
        <dc:type
           rdf:resource="http://purl.org/dc/dcmitype/StillImage" />
        <dc:title></dc:title>
      </cc:Work>
    </rdf:RDF>
  </metadata>
  <g
     inkscape:label="Layer 1"
     inkscape:groupmode="layer"
     id="layer1"
     transform="translate(-59.978699,-127.06573)">
    <path
       style="color:#000000;font-style:normal;font-variant:normal;font-weight:normal;font-stretch:normal;font-size:medium;line-height:normal;font-family:sans-serif;font-variant-ligatures:normal;font-variant-position:normal;font-variant-caps:normal;font-variant-numeric:normal;font-variant-alternates:normal;font-feature-settings:normal;text-indent:0;text-align:start;text-decoration:none;text-decoration-line:none;text-decoration-style:solid;text-decoration-color:#000000;letter-spacing:normal;word-spacing:normal;text-transform:none;writing-mode:lr-tb;direction:ltr;text-orientation:mixed;dominant-baseline:auto;baseline-shift:baseline;text-anchor:start;white-space:normal;shape-padding:0;clip-rule:nonzero;display:inline;overflow:visible;visibility:visible;opacity:1;isolation:auto;mix-blend-mode:normal;color-interpolation:sRGB;color-interpolation-filters:linearRGB;solid-color:#000000;solid-opacity:1;vector-effect:none;fill:#ffcdee;fill-opacity:1;fill-rule:nonzero;stroke:#e80da3;stroke-width:2.64583325;stroke-linecap:round;stroke-linejoin:round;stroke-miterlimit:4;stroke-dasharray:none;stroke-dashoffset:0;stroke-opacity:1;paint-order:markers stroke fill;color-rendering:auto;image-rendering:auto;shape-rendering:auto;text-rendering:auto;enable-background:accumulate"
       d="m 68.267719,128.86705 a 0.61241268,0.61225266 0 0 0 -0.58945,0.42661 l -1.37598,4.31667 -4.20209,1.07375 a 0.61241268,0.61225266 0 0 0 -0.0741,1.16232 l 3.1606,1.25812 -1.36513,4.28233 a 0.61241268,0.61225266 0 0 0 0.99989,0.63629 l 3.82599,-3.53938 4.44617,1.76969 a 0.61241268,0.61225266 0 0 0 0.77389,-0.84056 l -1.9564,-3.94791 3.14072,-2.90489 a 0.61241268,0.61225266 0 0 0 -0.56774,-1.04302 l -4.01946,1.02855 -1.65443,-3.33692 a 0.61241268,0.61225266 0 0 0 -0.54244,-0.34165 z m 0.11752,2.23968 0.8661,1.748 -1.54956,0.39769 z m 4.06287,2.19449 -1.10296,1.02133 -0.32547,-0.65618 z m -2.64168,0.67606 0.6021,1.21113 -2.0251,1.87092 -1.68336,-0.67064 0.56233,-1.76065 z m -3.94353,1.00867 -0.30195,0.94902 -1.33439,-0.53145 z m 5.11158,1.3449 1.08849,2.19449 -2.41927,-0.96348 z m -4.64688,1.22739 1.05956,0.42299 -1.69421,1.56905 z"
       id="path4931"
       inkscape:connector-curvature="0" />
  </g>
</svg>
