<?xml version="1.0" encoding="UTF-8" standalone="no"?>
<!-- Created with Inkscape (http://www.inkscape.org/) -->

<svg
   xmlns:dc="http://purl.org/dc/elements/1.1/"
   xmlns:cc="http://creativecommons.org/ns#"
   xmlns:rdf="http://www.w3.org/1999/02/22-rdf-syntax-ns#"
   xmlns:svg="http://www.w3.org/2000/svg"
   xmlns="http://www.w3.org/2000/svg"
   xmlns:sodipodi="http://sodipodi.sourceforge.net/DTD/sodipodi-0.dtd"
   xmlns:inkscape="http://www.inkscape.org/namespaces/inkscape"
   width="96"
   height="96"
   viewBox="0 0 25.399997 25.399999"
   version="1.1"
   id="svg1718"
   inkscape:version="0.92.2 5c3e80d, 2017-08-06"
   sodipodi:docname="conjuration_shield_1.svg">
  <defs
     id="defs1712">
    <mask
       maskUnits="userSpaceOnUse"
       id="mask1853">
      <rect
         style="opacity:1;vector-effect:none;fill:#ffffff;fill-opacity:1;stroke:none;stroke-width:2.64583325;stroke-linecap:round;stroke-linejoin:miter;stroke-miterlimit:4;stroke-dasharray:none;stroke-dashoffset:0;stroke-opacity:1;paint-order:markers stroke fill"
         id="rect1855"
         width="14.616189"
         height="42.31002"
         x="545.13489"
         y="-163.02531" />
    </mask>
  </defs>
  <sodipodi:namedview
     id="base"
     pagecolor="#ffffff"
     bordercolor="#666666"
     borderopacity="1.0"
     inkscape:pageopacity="0.0"
     inkscape:pageshadow="2"
     inkscape:zoom="3.959798"
     inkscape:cx="-17.930877"
     inkscape:cy="28.236329"
     inkscape:document-units="px"
     inkscape:current-layer="layer1"
     showgrid="false"
     fit-margin-top="0"
     fit-margin-left="0"
     fit-margin-right="0"
     fit-margin-bottom="0"
     inkscape:window-width="1920"
     inkscape:window-height="1036"
     inkscape:window-x="0"
     inkscape:window-y="0"
     inkscape:window-maximized="0"
     inkscape:snap-global="false"
     units="px"
     showguides="false"
     objecttolerance="20">
    <inkscape:grid
       type="xygrid"
       id="grid821" />
  </sodipodi:namedview>
  <metadata
     id="metadata1715">
    <rdf:RDF>
      <cc:Work
         rdf:about="">
        <dc:format>image/svg+xml</dc:format>
        <dc:type
           rdf:resource="http://purl.org/dc/dcmitype/StillImage" />
        <dc:title></dc:title>
      </cc:Work>
    </rdf:RDF>
  </metadata>
  <g
     inkscape:label="Layer 1"
     inkscape:groupmode="layer"
     id="layer1"
     transform="translate(-59.067602,-118.91057)">
    <path
       style="opacity:1;fill:#552200;fill-opacity:1;fill-rule:nonzero;stroke:#060606;stroke-width:0.22024703;stroke-linecap:round;stroke-linejoin:round;stroke-miterlimit:4;stroke-dasharray:none;stroke-dashoffset:0;stroke-opacity:1;paint-order:markers stroke fill"
       d="m 66.577347,138.09441 c 0,-4.55646 -0.02139,-4.4286 0.83441,-4.98785 0.614086,-0.40131 1.306711,-0.66976 2.271624,-0.88048 1.076728,-0.23513 3.283839,-0.29668 4.599788,-0.12827 1.82498,0.23356 3.285557,0.81945 3.888982,1.56003 l 0.311433,0.38222 0.03902,4.05916 0.03903,4.05915 H 72.56949 66.577343 Z"
       id="path4530"
       inkscape:connector-curvature="0" />
    <path
       style="opacity:1;fill:#87aade;fill-opacity:1;fill-rule:nonzero;stroke:#000000;stroke-width:1.32291651;stroke-linecap:butt;stroke-linejoin:round;stroke-miterlimit:4;stroke-dasharray:none;stroke-dashoffset:0;stroke-opacity:1;paint-order:markers stroke fill"
       d="M 62.928904,131.74992 V 121.3264 h 1.169304 1.169304 v 1.33635 1.33635 h 1.469982 1.469983 v -1.33635 -1.33635 h 1.169304 1.169303 v 1.33635 1.33635 h 1.469983 1.469982 v -1.33635 -1.33635 h 1.169304 1.169304 v 1.33635 1.33635 h 1.469983 1.469982 v -1.33635 -1.33635 h 1.169304 1.169304 v 10.42352 10.42351 h -2.472243 -2.472243 v -4.02842 c 0,-4.31257 -0.0071,-4.41785 -0.343564,-5.07732 -0.348975,-0.68405 -1.297284,-1.34806 -2.331246,-1.63235 -0.612042,-0.16828 -2.324055,-0.16808 -2.93785,3.4e-4 -1.39702,0.38335 -2.367949,1.26966 -2.598614,2.37216 -0.04947,0.23645 -0.07408,1.68496 -0.07408,4.35984 v 4.00575 h -2.472243 -2.472243 z"
       id="path4522"
       inkscape:connector-curvature="0" />
  </g>
</svg>
