<?xml version="1.0" encoding="UTF-8" standalone="no"?>
<!-- Created with Inkscape (http://www.inkscape.org/) -->

<svg
   xmlns:dc="http://purl.org/dc/elements/1.1/"
   xmlns:cc="http://creativecommons.org/ns#"
   xmlns:rdf="http://www.w3.org/1999/02/22-rdf-syntax-ns#"
   xmlns:svg="http://www.w3.org/2000/svg"
   xmlns="http://www.w3.org/2000/svg"
   xmlns:sodipodi="http://sodipodi.sourceforge.net/DTD/sodipodi-0.dtd"
   xmlns:inkscape="http://www.inkscape.org/namespaces/inkscape"
   width="100"
   height="100"
   viewBox="0 0 26.458333 26.458335"
   version="1.1"
   id="svg1718"
   inkscape:version="0.92.2 2405546, 2018-03-11"
   sodipodi:docname="app-icon.svg">
  <defs
     id="defs1712">
    <mask
       maskUnits="userSpaceOnUse"
       id="mask5050">
      <path
         sodipodi:type="star"
         style="opacity:1;vector-effect:none;fill:#fefefe;fill-opacity:1;stroke:none;stroke-width:1.38016152;stroke-linecap:butt;stroke-linejoin:miter;stroke-miterlimit:4;stroke-dasharray:none;stroke-dashoffset:0;stroke-opacity:1;paint-order:markers stroke fill"
         id="path5052"
         sodipodi:sides="6"
         sodipodi:cx="161.56442"
         sodipodi:cy="5.4089437"
         sodipodi:r1="5.4472561"
         sodipodi:r2="4.7174621"
         sodipodi:arg1="1.5707963"
         sodipodi:arg2="2.0943951"
         inkscape:flatsided="true"
         inkscape:rounded="0.66"
         inkscape:randomized="0"
         d="m 161.56442,10.8562 c -3.59519,0 -2.91986,0.389897 -4.71746,-2.7236282 -1.79759,-3.1135249 -1.79759,-2.333731 0,-5.4472561 1.79759,-3.11352503 1.12227,-2.72362804 4.71746,-2.72362814 3.59519,-9e-8 2.91987,-0.38989705 4.71746,2.72362794 1.7976,3.113525 1.7976,2.333731 0,5.4472561 -1.79759,3.1135254 -1.12227,2.7236284 -4.71746,2.7236284 z"
         transform="matrix(1.6602107,-0.95852305,0.95852305,1.6602107,-177.33979,238.79586)"
         inkscape:transform-center-y="-3.3407218e-06"
         inkscape:transform-center-x="-1.1469534e-06" />
    </mask>
  </defs>
  <sodipodi:namedview
     id="base"
     pagecolor="#ffffff"
     bordercolor="#666666"
     borderopacity="1.0"
     inkscape:pageopacity="0.0"
     inkscape:pageshadow="2"
     inkscape:zoom="2"
     inkscape:cx="1.1550916"
     inkscape:cy="-39.921936"
     inkscape:document-units="px"
     inkscape:current-layer="layer1"
     showgrid="false"
     fit-margin-top="0"
     fit-margin-left="0"
     fit-margin-right="0"
     fit-margin-bottom="0"
     inkscape:window-width="1920"
     inkscape:window-height="1052"
     inkscape:window-x="0"
     inkscape:window-y="0"
     inkscape:window-maximized="0"
     inkscape:snap-global="false"
     units="px" />
  <metadata
     id="metadata1715">
    <rdf:RDF>
      <cc:Work
         rdf:about="">
        <dc:format>image/svg+xml</dc:format>
        <dc:type
           rdf:resource="http://purl.org/dc/dcmitype/StillImage" />
        <dc:title />
      </cc:Work>
    </rdf:RDF>
  </metadata>
  <g
     inkscape:label="Layer 1"
     inkscape:groupmode="layer"
     id="layer1"
     transform="translate(-82.692381,-79.66993)">
    <rect
       style="opacity:1;vector-effect:none;fill:#8a6300;fill-opacity:1;stroke:#000000;stroke-width:2.64583349;stroke-linecap:round;stroke-linejoin:round;stroke-miterlimit:5;stroke-dasharray:none;stroke-dashoffset:0;stroke-opacity:1;paint-order:markers stroke fill"
       id="rect2280"
       width="38.033855"
       height="39.55521"
       x="110.75762"
       y="114.61367" />
    <path
       sodipodi:type="star"
       style="opacity:1;vector-effect:none;fill:#fbfbfb;fill-opacity:1;stroke:#fafafa;stroke-width:1.93074524;stroke-linecap:butt;stroke-linejoin:miter;stroke-miterlimit:4;stroke-dasharray:none;stroke-dashoffset:0;stroke-opacity:1;paint-order:markers stroke fill"
       id="path1035-3-6"
       sodipodi:sides="6"
       sodipodi:cx="161.56442"
       sodipodi:cy="5.4089437"
       sodipodi:r1="5.4472561"
       sodipodi:r2="4.7174621"
       sodipodi:arg1="1.5707963"
       sodipodi:arg2="2.0943951"
       inkscape:flatsided="true"
       inkscape:rounded="0.66"
       inkscape:randomized="0"
       d="m 161.56442,10.8562 c -3.59519,0 -2.91986,0.389897 -4.71746,-2.7236282 -1.79759,-3.1135249 -1.79759,-2.333731 0,-5.4472561 1.79759,-3.11352503 1.12227,-2.72362804 4.71746,-2.72362814 3.59519,-9e-8 2.91987,-0.38989705 4.71746,2.72362794 1.7976,3.113525 1.7976,2.333731 0,5.4472561 -1.79759,3.1135254 -1.12227,2.7236284 -4.71746,2.7236284 z"
       transform="matrix(1.6019815,-0.92509363,0.92490444,1.6023093,-167.87148,233.78124)"
       inkscape:transform-center-x="9.1312825e-06"
       inkscape:transform-center-y="-5.883476e-06" />
    <path
       sodipodi:type="star"
       style="opacity:1;vector-effect:none;fill:#ffffff;fill-opacity:1;stroke:#000000;stroke-width:1.43018162;stroke-linecap:butt;stroke-linejoin:miter;stroke-miterlimit:4;stroke-dasharray:none;stroke-dashoffset:0;stroke-opacity:1;paint-order:markers stroke fill"
       id="path1035-3"
       sodipodi:sides="6"
       sodipodi:cx="161.56442"
       sodipodi:cy="5.4089437"
       sodipodi:r1="5.4472561"
       sodipodi:r2="4.7174621"
       sodipodi:arg1="1.5707963"
       sodipodi:arg2="2.0943951"
       inkscape:flatsided="true"
       inkscape:rounded="0.66"
       inkscape:randomized="0"
       d="m 161.56442,10.8562 c -3.59519,0 -2.91986,0.389897 -4.71746,-2.7236282 -1.79759,-3.1135249 -1.79759,-2.333731 0,-5.4472561 1.79759,-3.11352503 1.12227,-2.72362804 4.71746,-2.72362814 3.59519,-9e-8 2.91987,-0.38989705 4.71746,2.72362794 1.7976,3.113525 1.7976,2.333731 0,5.4472561 -1.79759,3.1135254 -1.12227,2.7236284 -4.71746,2.7236284 z"
       transform="matrix(1.6019815,-0.92509364,0.92490445,1.6023093,-167.87148,233.78124)"
       inkscape:transform-center-x="9.1340253e-06"
       inkscape:transform-center-y="-5.8020725e-06" />
    <g
       id="g5036"
       mask="url(#mask5050)"
       transform="matrix(0.96492664,0,0,0.96512403,3.2484158,3.3136207)"
       style="stroke-width:1.03624225">
      <circle
         style="opacity:1;vector-effect:none;fill:#fff9ea;fill-opacity:1;stroke:#ffd99f;stroke-width:1.37086213;stroke-linecap:round;stroke-linejoin:round;stroke-miterlimit:4;stroke-dasharray:none;stroke-dashoffset:0;stroke-opacity:1;paint-order:markers stroke fill"
         id="path2032"
         cx="99.731178"
         cy="85.673714"
         r="11.773959" />
      <circle
         r="1.0583334"
         cy="90.875"
         cx="94.619202"
         id="path2906"
         style="opacity:1;vector-effect:none;fill:#080808;fill-opacity:1;stroke:none;stroke-width:2.74172425;stroke-linecap:round;stroke-linejoin:round;stroke-miterlimit:4;stroke-dasharray:none;stroke-dashoffset:0;stroke-opacity:1;paint-order:markers stroke fill" />
      <circle
         r="1.0583334"
         cy="91.110947"
         cx="102.39619"
         id="path2906-3"
         style="opacity:1;vector-effect:none;fill:#080808;fill-opacity:1;stroke:none;stroke-width:2.74172425;stroke-linecap:round;stroke-linejoin:round;stroke-miterlimit:4;stroke-dasharray:none;stroke-dashoffset:0;stroke-opacity:1;paint-order:markers stroke fill" />
      <path
         sodipodi:nodetypes="cc"
         inkscape:connector-curvature="0"
         id="path2923"
         d="m 96.907457,92.07359 c 0.429871,1.457809 2.737981,1.475908 3.136313,0.102928 z"
         style="fill:none;stroke:#ff8daa;stroke-width:1.37086213;stroke-linecap:round;stroke-linejoin:round;stroke-miterlimit:4;stroke-dasharray:none;stroke-opacity:1" />
      <g
         transform="matrix(0.24559104,-0.5033826,-0.5033826,-0.24559104,190.6206,258.2773)"
         style="stroke-width:0.24475428;stroke-miterlimit:4;stroke-dasharray:none"
         id="g5824-3-1-0">
        <rect
           style="opacity:1;vector-effect:none;fill:#ffffff;fill-opacity:1;stroke:none;stroke-width:0.24475428;stroke-linecap:round;stroke-linejoin:miter;stroke-miterlimit:4;stroke-dasharray:none;stroke-dashoffset:0;stroke-opacity:1;paint-order:markers stroke fill"
           id="rect5820-6-8-2"
           width="27.549011"
           height="8.7967224"
           x="160.22069"
           y="284.63135" />
        <path
           style="color:#000000;font-style:normal;font-variant:normal;font-weight:normal;font-stretch:normal;font-size:medium;line-height:normal;font-family:sans-serif;font-variant-ligatures:normal;font-variant-position:normal;font-variant-caps:normal;font-variant-numeric:normal;font-variant-alternates:normal;font-feature-settings:normal;text-indent:0;text-align:start;text-decoration:none;text-decoration-line:none;text-decoration-style:solid;text-decoration-color:#000000;letter-spacing:normal;word-spacing:normal;text-transform:none;writing-mode:lr-tb;direction:ltr;text-orientation:mixed;dominant-baseline:auto;baseline-shift:baseline;text-anchor:start;white-space:normal;shape-padding:0;clip-rule:nonzero;display:inline;overflow:visible;visibility:visible;opacity:1;isolation:auto;mix-blend-mode:normal;color-interpolation:sRGB;color-interpolation-filters:linearRGB;solid-color:#000000;solid-opacity:1;vector-effect:none;fill:#f74e00;fill-opacity:1;fill-rule:nonzero;stroke:none;stroke-width:4.89508533;stroke-linecap:round;stroke-linejoin:miter;stroke-miterlimit:4;stroke-dasharray:none;stroke-dashoffset:0;stroke-opacity:1;paint-order:markers stroke fill;color-rendering:auto;image-rendering:auto;shape-rendering:auto;text-rendering:auto;enable-background:accumulate"
           d="m 162.63428,255.66763 c -3.64159,0 -6.61458,2.97299 -6.61458,6.61458 v 27.78125 c 0,3.64159 2.97299,6.61458 6.61458,6.61458 h 23.8125 c 1.44291,0 2.64584,-1.20292 2.64584,-2.64583 v -0.6041 -0.71882 -6.87503 -1.20301 -26.31779 c 0,-1.4429 -1.20293,-2.64583 -2.64584,-2.64583 z m 0,2.64583 h 23.8125 v 26.31779 1.20301 6.87503 0.71882 0.6041 h -23.8125 c -2.22156,0 -3.96875,-1.74717 -3.96875,-3.96875 v -27.78125 c 0,-2.22157 1.74719,-3.96875 3.96875,-3.96875 z"
           id="rect5820-6-2-7-3"
           inkscape:connector-curvature="0" />
        <path
           style="opacity:1;vector-effect:none;fill:#ffcba5;fill-opacity:1;stroke:none;stroke-width:0.24475428;stroke-linecap:round;stroke-linejoin:miter;stroke-miterlimit:4;stroke-dasharray:none;stroke-dashoffset:0;stroke-opacity:1;paint-order:markers stroke fill"
           d="m 162.63417,256.99055 c -2.93158,0 -5.29165,2.36009 -5.29165,5.29167 v 27.78125 c 0,2.93158 2.36007,5.29167 5.29165,5.29167 h 23.81262 c 0.73289,0 1.32291,-0.59002 1.32291,-1.32292 v -1.32292 c 0,-0.70604 -0.61101,-1.32291 -1.32291,-1.32291 H 163.4579 c -1.17054,0.003 -2.12038,-0.94665 -2.12038,-2.1172 0,-1.17051 0.94984,-2.11894 2.12038,-2.11717 h 22.98889 c 0.71487,0 1.32291,-0.6129 1.32291,-1.31773 v -27.52082 c 0,-0.7329 -0.59002,-1.32292 -1.32291,-1.32292 z"
           id="rect1865-0-2-6-9-7"
           inkscape:connector-curvature="0"
           sodipodi:nodetypes="cssccscccscccccc" />
      </g>
    </g>
    <g
       id="g1065"
       transform="matrix(3.5409077,0,0,3.5412013,-116.99133,21.2337)"
       style="stroke-width:0.0587416;stroke-miterlimit:5;stroke-dasharray:none">
      <path
         transform="matrix(0.46902426,-0.27224108,0.27079128,0.47153538,-8.512198,61.771668)"
         d="m 161.56442,10.8562 c -3.59519,0 -2.91986,0.389897 -4.71746,-2.7236282 -1.79759,-3.1135249 -1.79759,-2.333731 0,-5.4472561 1.79759,-3.11352503 1.12227,-2.72362804 4.71746,-2.72362814 3.59519,-9e-8 2.91987,-0.38989705 4.71746,2.72362794 1.7976,3.113525 1.7976,2.333731 0,5.4472561 -1.79759,3.1135254 -1.12227,2.7236284 -4.71746,2.7236284 z"
         inkscape:randomized="0"
         inkscape:rounded="0.66"
         inkscape:flatsided="true"
         sodipodi:arg2="2.0943951"
         sodipodi:arg1="1.5707963"
         sodipodi:r2="4.7174621"
         sodipodi:r1="5.4472561"
         sodipodi:cy="5.4089437"
         sodipodi:cx="161.56442"
         sodipodi:sides="6"
         id="path1035-5"
         style="opacity:1;vector-effect:none;fill:#fafbfc;fill-opacity:1;stroke:#000000;stroke-width:1.37595963;stroke-linecap:butt;stroke-linejoin:miter;stroke-miterlimit:5;stroke-dasharray:none;stroke-dashoffset:0;stroke-opacity:1;paint-order:markers stroke fill"
         sodipodi:type="star"
         inkscape:transform-center-x="-1.0624767e-06" />
      <path
         id="path2-3"
         d="m 71.18752,19.262995 c -0.03027,-0.02235 -0.06881,-0.02613 -0.102852,-0.0098 l -1.643748,0.786071 c -0.07146,0.03432 -0.160909,0.05322 -0.252795,0.05715 -0.128094,0.0058 -0.260663,-0.01848 -0.353035,-0.05537 -0.03303,-0.01276 -0.06063,-0.02754 -0.08016,-0.04093 0.0072,-0.0038 0.01527,-0.0079 0.02486,-0.012 l 1.495353,-0.714774 0.22317,0.08641 v -0.280417 c 0,-0.04174 -0.0176,-0.08055 -0.04787,-0.102592 -0.03033,-0.02235 -0.06897,-0.02611 -0.102673,-0.0098 l -1.645219,0.786013 c -0.05064,0.02289 -0.09423,0.04987 -0.131193,0.08831 -0.03622,0.03716 -0.06752,0.09732 -0.06703,0.162598 0,0.0018 3.87e-4,0.0047 3.87e-4,0.0047 v 2.51972 c 0,9.5e-4 -3.43e-4,0.0022 -3.43e-4,0.0033 0,8.8e-4 3.43e-4,0.0011 3.43e-4,0.002 v 0.0028 l 3.3e-4,-1.3e-5 c 0.0038,0.08906 0.04766,0.144122 0.0899,0.17992 0.13283,0.112022 0.355772,0.168348 0.592828,0.163522 0.112309,-0.0048 0.226387,-0.02758 0.331714,-0.07686 l 1.644104,-0.786808 c 0.04354,-0.01974 0.07176,-0.06856 0.07176,-0.120835 v -2.529473 c -9.2e-5,-0.0417 -0.01803,-0.0804 -0.04793,-0.102769 z"
         style="fill:#e743c8;fill-opacity:1;stroke-width:0.05874161;stroke-miterlimit:5;stroke-dasharray:none"
         inkscape:connector-curvature="0" />
      <path
         id="path4-5"
         d="m 70.144994,18.82864 c -0.0032,-0.0376 -0.01825,-0.07257 -0.0462,-0.09307 -0.03006,-0.02236 -0.06881,-0.02613 -0.103031,-0.0098 l -1.643611,0.785987 c -0.07147,0.03413 -0.161088,0.05327 -0.252838,0.0572 -0.1281,0.0057 -0.260708,-0.01865 -0.353085,-0.0555 -0.03281,-0.01264 -0.06059,-0.02742 -0.08012,-0.04076 0.0072,-0.0039 0.01554,-0.0079 0.02486,-0.012 l 1.495175,-0.714812 0.222856,0.08643 v -0.280418 c 0,-0.04175 -0.01803,-0.08049 -0.04826,-0.102578 -0.03,-0.02236 -0.06928,-0.02619 -0.103107,-0.0098 l -1.643751,0.785948 c -0.05064,0.02271 -0.09405,0.04974 -0.131014,0.0883 -0.03639,0.03717 -0.06752,0.09732 -0.06704,0.162687 0,0.0018 3.89e-4,0.0046 3.89e-4,0.0046 v 2.519808 c 0,9.5e-4 -1.61e-4,0.0024 -1.61e-4,0.0033 0,6.53e-4 1.61e-4,9.5e-4 1.61e-4,0.0037 v 0.0033 l 3.35e-4,-1.5e-5 c 0.0038,0.08906 0.04771,0.144122 0.08989,0.179433 0.132833,0.112066 0.355781,0.166347 0.592957,0.162182 0.06399,-0.0028 0.128278,-0.01386 0.1916,-0.02858 v -2.305886 c -0.0016,-0.11969 0.04598,-0.236689 0.129688,-0.323052 0.05425,-0.05621 0.120448,-0.101628 0.202476,-0.137996 z"
         style="fill:#ffb700;fill-opacity:1;stroke-width:0.05874161;stroke-miterlimit:5;stroke-dasharray:none"
         inkscape:connector-curvature="0" />
      <path
         id="path4-5-3"
         d="m 69.07506,18.273904 c -0.0032,-0.0376 -0.01825,-0.07257 -0.0462,-0.09307 -0.03006,-0.02236 -0.06881,-0.02613 -0.103032,-0.0098 l -1.643611,0.785987 c -0.07147,0.03413 -0.161088,0.05327 -0.252838,0.0572 -0.1281,0.0057 -0.260708,-0.01865 -0.353085,-0.0555 -0.03281,-0.01264 -0.06059,-0.02742 -0.08012,-0.04076 0.0072,-0.0039 0.01554,-0.0079 0.02486,-0.012 l 1.495175,-0.714812 0.222856,0.08643 v -0.280418 c 0,-0.04175 -0.01803,-0.08049 -0.04826,-0.102578 -0.03,-0.02236 -0.06928,-0.02619 -0.103108,-0.0098 l -1.643751,0.785948 c -0.05064,0.02271 -0.09405,0.04974 -0.131014,0.0883 -0.03639,0.03717 -0.06752,0.09732 -0.06704,0.162687 0,0.0018 3.89e-4,0.0046 3.89e-4,0.0046 v 2.519808 c 0,9.49e-4 -1.61e-4,0.0024 -1.61e-4,0.0033 0,6.5e-4 1.61e-4,9.5e-4 1.61e-4,0.0037 v 0.0033 l 3.35e-4,-1.5e-5 c 0.0038,0.08906 0.04771,0.144122 0.08989,0.179433 0.132833,0.112066 0.355781,0.166347 0.592957,0.162182 0.06399,-0.0028 0.128278,-0.01386 0.1916,-0.02858 v -2.305887 c -0.0016,-0.11969 0.04598,-0.236689 0.129688,-0.323052 0.05425,-0.05621 0.120449,-0.101628 0.202476,-0.137996 z"
         style="fill:#ffb700;fill-opacity:1;stroke-width:0.05874161;stroke-miterlimit:5;stroke-dasharray:none"
         inkscape:connector-curvature="0" />
    </g>
  </g>
</svg>
