<?xml version="1.0" encoding="UTF-8" standalone="no"?>
<!-- Created with Inkscape (http://www.inkscape.org/) -->

<svg
   xmlns:dc="http://purl.org/dc/elements/1.1/"
   xmlns:cc="http://creativecommons.org/ns#"
   xmlns:rdf="http://www.w3.org/1999/02/22-rdf-syntax-ns#"
   xmlns:svg="http://www.w3.org/2000/svg"
   xmlns="http://www.w3.org/2000/svg"
   xmlns:sodipodi="http://sodipodi.sourceforge.net/DTD/sodipodi-0.dtd"
   xmlns:inkscape="http://www.inkscape.org/namespaces/inkscape"
   id="svg2"
   version="1.1"
   inkscape:version="0.92.4 5da689c313, 2019-01-14"
   xml:space="preserve"
   width="400"
   height="150"
   viewBox="0 0 374.99999 140.625"
   sodipodi:docname="godot_logo.svg"
   inkscape:export-filename="/home/akien/Projects/godot/godot.git/logo.png"
   inkscape:export-xdpi="48"
   inkscape:export-ydpi="48"><metadata
     id="metadata8"><rdf:RDF><cc:Work
         rdf:about=""><dc:format>image/svg+xml</dc:format><dc:type
           rdf:resource="http://purl.org/dc/dcmitype/StillImage" /><dc:title></dc:title></cc:Work></rdf:RDF></metadata><defs
     id="defs6"><clipPath
       clipPathUnits="userSpaceOnUse"
       id="clipPath16"><path
         d="M 0,595.276 H 841.89 V 0 H 0 Z"
         id="path18"
         inkscape:connector-curvature="0" /></clipPath></defs><sodipodi:namedview
     pagecolor="#ffffff"
     bordercolor="#666666"
     borderopacity="1"
     objecttolerance="10"
     gridtolerance="10"
     guidetolerance="10"
     inkscape:pageopacity="0"
     inkscape:pageshadow="2"
     inkscape:window-width="826"
     inkscape:window-height="1032"
     id="namedview4"
     showgrid="false"
     inkscape:zoom="0.89707474"
     inkscape:cx="191.68697"
     inkscape:cy="-46.700269"
     inkscape:window-x="1157"
     inkscape:window-y="34"
     inkscape:window-maximized="0"
     inkscape:current-layer="g10"
     fit-margin-top="48"
     fit-margin-left="48"
     fit-margin-right="48"
     fit-margin-bottom="48" /><g
     id="g10"
     inkscape:groupmode="layer"
     inkscape:label="godot_engine_logo_2017_curves-01"
     transform="matrix(1.25,0,0,-1.25,-94.249997,349.99874)"><g
       id="g12"
       transform="matrix(0.38001913,0,0,0.38001913,49.74423,100.60926)"><g
         style="stroke-width:0.88413143;fill:#000000;fill-opacity:1"
         transform="matrix(1.1310535,0,0,1.1310535,531.44953,355.31567)"
         id="g20"><path
           inkscape:connector-curvature="0"
           id="path22"
           style="fill:#000000;fill-opacity:1;fill-rule:nonzero;stroke:none;stroke-width:0.88413143"
           d="m 0,0 c -3.611,0 -6.636,-1.659 -9.09,-4.967 -2.441,-3.311 -3.668,-7.958 -3.668,-13.938 0,-5.993 1.166,-10.581 3.503,-13.778 2.333,-3.207 5.398,-4.804 9.2,-4.804 3.8,0 6.887,1.617 9.258,4.862 2.371,3.233 3.559,7.861 3.559,13.886 0,6.02 -1.227,10.654 -3.673,13.89 C 6.646,-1.617 3.616,0 0,0 m -0.055,-59.493 c -10.573,0 -19.195,3.46 -25.859,10.379 -6.655,6.925 -9.984,17.03 -9.984,30.314 0,13.292 3.367,23.356 10.101,30.209 6.736,6.844 15.431,10.269 26.082,10.269 10.649,0 19.251,-3.363 25.794,-10.109 6.555,-6.733 9.827,-16.94 9.827,-30.591 0,-13.661 -3.348,-23.822 -10.05,-30.49 -6.702,-6.654 -15.333,-9.981 -25.911,-9.981" /></g><g
         style="stroke-width:0.88413143;fill:#000000;fill-opacity:1"
         transform="matrix(1.1310535,0,0,1.1310535,607.8515,354.43097)"
         id="g24"><path
           inkscape:connector-curvature="0"
           id="path26"
           style="fill:#000000;fill-opacity:1;fill-rule:nonzero;stroke:none;stroke-width:0.88413143"
           d="m 0,0 v -33.768 c 0,-1.577 0.116,-2.571 0.342,-2.988 0.224,-0.415 0.903,-0.623 2.029,-0.623 4.144,0 7.283,1.548 9.429,4.634 2.151,3.083 3.215,8.216 3.215,15.405 0,7.192 -1.113,11.878 -3.325,14.055 C 9.467,-1.102 5.946,0 1.129,0 Z m -21.675,-52.392 v 67.735 c 0,1.883 0.468,3.369 1.413,4.471 0.939,1.085 2.161,1.636 3.671,1.636 H 2.263 c 11.965,0 21.053,-3.018 27.257,-9.04 6.215,-6.02 9.322,-15.499 9.322,-28.447 0,-27.7 -11.821,-41.547 -35.456,-41.547 h -19.302 c -3.836,0 -5.759,1.727 -5.759,5.192" /></g><g
         style="stroke-width:0.88413143;fill:#000000;fill-opacity:1"
         transform="matrix(1.1310535,0,0,1.1310535,700.81066,355.31567)"
         id="g28"><path
           inkscape:connector-curvature="0"
           id="path30"
           style="fill:#000000;fill-opacity:1;fill-rule:nonzero;stroke:none;stroke-width:0.88413143"
           d="m 0,0 c -3.612,0 -6.645,-1.659 -9.095,-4.967 -2.44,-3.311 -3.662,-7.958 -3.662,-13.938 0,-5.993 1.169,-10.581 3.499,-13.778 2.33,-3.207 5.398,-4.804 9.2,-4.804 3.801,0 6.89,1.617 9.258,4.862 2.372,3.233 3.56,7.861 3.56,13.886 0,6.02 -1.225,10.654 -3.671,13.89 C 6.642,-1.617 3.616,0 0,0 m -0.058,-59.493 c -10.577,0 -19.193,3.46 -25.851,10.379 -6.663,6.925 -9.993,17.03 -9.993,30.314 0,13.292 3.367,23.356 10.1,30.209 6.741,6.844 15.431,10.269 26.086,10.269 10.651,0 19.246,-3.363 25.797,-10.109 6.55,-6.733 9.822,-16.94 9.822,-30.591 0,-13.661 -3.349,-23.822 -10.05,-30.49 -6.699,-6.654 -15.338,-9.981 -25.911,-9.981" /></g><g
         style="stroke-width:0.88413143;fill:#000000;fill-opacity:1"
         transform="matrix(1.1310535,0,0,1.1310535,789.01132,291.33514)"
         id="g32"><path
           inkscape:connector-curvature="0"
           id="path34"
           style="fill:#000000;fill-opacity:1;fill-rule:nonzero;stroke:none;stroke-width:0.88413143"
           d="m 0,0 c 0,-1.496 -3.721,-2.255 -11.176,-2.255 -7.448,0 -11.18,0.759 -11.18,2.255 v 56.681 h -13.545 c -1.281,0 -2.185,1.727 -2.71,5.198 -0.226,1.652 -0.334,3.343 -0.334,5.077 0,1.724 0.108,3.422 0.334,5.077 0.525,3.462 1.429,5.202 2.71,5.202 h 49.112 c 1.279,0 2.179,-1.74 2.712,-5.202 0.221,-1.655 0.335,-3.353 0.335,-5.077 0,-1.734 -0.114,-3.425 -0.335,-5.077 C 15.39,58.408 14.49,56.681 13.211,56.681 H 0 Z" /></g><g
         style="stroke-width:0.88413143;fill:#000000;fill-opacity:1"
         transform="matrix(1.1310535,0,0,1.1310535,468.26549,336.71278)"
         id="g36"><path
           inkscape:connector-curvature="0"
           id="path38"
           style="fill:#000000;fill-opacity:1;fill-rule:nonzero;stroke:none;stroke-width:0.88413143"
           d="m 0,0 c -6.078,0.094 -13.034,-1.173 -13.034,-1.173 v -11.863 h 6.995 l -0.078,-5.288 c 0,-1.959 -1.942,-2.943 -5.815,-2.943 -3.878,0 -7.303,1.642 -10.274,4.917 -2.978,3.279 -4.459,8.072 -4.459,14.388 0,6.329 1.447,10.995 4.345,14.006 2.892,3.008 6.683,4.517 11.346,4.517 1.959,0 3.987,-0.316 6.096,-0.961 2.11,-0.639 3.519,-1.238 4.238,-1.799 0.713,-0.577 1.391,-0.85 2.032,-0.85 0.638,0 1.671,0.746 3.1,2.255 1.431,1.505 2.713,3.786 3.844,6.827 1.126,3.057 1.69,5.4 1.69,7.062 0,1.649 -0.036,2.786 -0.109,3.386 -1.581,1.73 -4.499,3.102 -8.755,4.122 -4.248,1.017 -9.011,1.522 -14.28,1.522 -11.594,0 -20.66,-3.65 -27.207,-10.95 -6.552,-7.303 -9.822,-16.783 -9.822,-28.452 0,-13.701 3.347,-24.087 10.041,-31.162 6.706,-7.074 15.51,-10.607 26.425,-10.607 5.87,0 11.08,0.505 15.632,1.522 4.557,1.013 7.586,2.053 9.093,3.105 l 0.452,35.33 C 11.496,-1.036 6.078,-0.104 0,0" /></g><g
         style="stroke-width:0.88413143"
         transform="matrix(1.1310535,0,0,1.1310535,348.13109,279.2668)"
         id="g78"><path
           inkscape:connector-curvature="0"
           id="path80"
           style="fill:#ffffff;fill-opacity:1;fill-rule:nonzero;stroke:none;stroke-width:0.88413143"
           d="m 0,0 c 0,0 -0.325,1.994 -0.515,1.976 l -36.182,-3.491 c -2.879,-0.278 -5.115,-2.574 -5.317,-5.459 l -0.994,-14.247 -27.992,-1.997 -1.904,12.912 c -0.424,2.872 -2.932,5.037 -5.835,5.037 h -38.188 c -2.902,0 -5.41,-2.165 -5.834,-5.037 l -1.905,-12.912 -27.992,1.997 -0.994,14.247 c -0.202,2.886 -2.438,5.182 -5.317,5.46 l -36.2,3.49 c -0.187,0.018 -0.324,-1.978 -0.511,-1.978 l -0.049,-7.83 30.658,-4.944 1.004,-14.374 c 0.203,-2.91 2.551,-5.263 5.463,-5.472 l 38.551,-2.75 c 0.146,-0.01 0.29,-0.016 0.434,-0.016 2.897,0 5.401,2.166 5.825,5.038 l 1.959,13.286 h 28.005 l 1.959,-13.286 c 0.423,-2.871 2.93,-5.037 5.831,-5.037 0.142,0 0.284,0.005 0.423,0.015 l 38.556,2.75 c 2.911,0.209 5.26,2.562 5.463,5.472 l 1.003,14.374 30.645,4.966 z" /></g><g
         style="fill:#e4eef6;fill-opacity:1;stroke:#478cbf;stroke-width:13.26197243;stroke-miterlimit:4;stroke-dasharray:none;stroke-opacity:1;paint-order:markers stroke fill"
         transform="matrix(1.1310535,0,0,1.1310535,126.80608,346.04533)"
         id="g82"><path
           inkscape:connector-curvature="0"
           id="path84"
           style="fill:#e4eef6;fill-opacity:1;fill-rule:nonzero;stroke:#478cbf;stroke-width:13.26197243;stroke-miterlimit:4;stroke-dasharray:none;stroke-opacity:1;paint-order:markers stroke fill"
           d="m 0,0 v -47.514 -6.035 -5.492 c 0.108,-0.001 0.216,-0.005 0.323,-0.015 l 36.196,-3.49 c 1.896,-0.183 3.382,-1.709 3.514,-3.609 l 1.116,-15.978 31.574,-2.253 2.175,14.747 c 0.282,1.912 1.922,3.329 3.856,3.329 h 38.188 c 1.933,0 3.573,-1.417 3.855,-3.329 l 2.175,-14.747 31.575,2.253 1.115,15.978 c 0.133,1.9 1.618,3.425 3.514,3.609 l 36.182,3.49 c 0.107,0.01 0.214,0.014 0.322,0.015 v 4.711 l 0.015,0.005 V 0 h 0.134 c 4.795,6.12 9.232,12.569 13.487,19.449 -5.651,9.62 -12.575,18.217 -19.976,26.182 -6.864,-3.455 -13.531,-7.369 -19.828,-11.534 -3.151,3.132 -6.7,5.694 -10.186,8.372 -3.425,2.751 -7.285,4.768 -10.946,7.118 1.09,8.117 1.629,16.108 1.846,24.448 -9.446,4.754 -19.519,7.906 -29.708,10.17 -4.068,-6.837 -7.788,-14.241 -11.028,-21.479 -3.842,0.642 -7.702,0.88 -11.567,0.926 v 0.006 c -0.027,0 -0.052,-0.006 -0.075,-0.006 -0.024,0 -0.049,0.006 -0.073,0.006 V 63.652 C 93.903,63.606 90.046,63.368 86.203,62.726 82.965,69.964 79.247,77.368 75.173,84.205 64.989,81.941 54.915,78.789 45.47,74.035 45.686,65.695 46.225,57.704 47.318,49.587 43.65,47.237 39.795,45.22 36.369,42.469 32.888,39.791 29.333,37.229 26.181,34.097 19.884,38.262 13.219,42.176 6.353,45.631 -1.048,37.666 -7.968,29.069 -13.621,19.449 -9.368,12.569 -4.928,6.12 -0.134,0 Z" /></g><g
         style="fill:#e4eef6;fill-opacity:1;stroke:#478cbf;stroke-width:13.26197243;stroke-miterlimit:4;stroke-dasharray:none;stroke-opacity:1;paint-order:markers stroke fill"
         transform="matrix(1.1310535,0,0,1.1310535,311.40329,266.88437)"
         id="g86"><path
           inkscape:connector-curvature="0"
           id="path88"
           style="fill:#e4eef6;fill-opacity:1;fill-rule:nonzero;stroke:#478cbf;stroke-width:13.26197243;stroke-miterlimit:4;stroke-dasharray:none;stroke-opacity:1;paint-order:markers stroke fill"
           d="m 0,0 -1.121,-16.063 c -0.135,-1.936 -1.675,-3.477 -3.611,-3.616 l -38.555,-2.751 c -0.094,-0.007 -0.188,-0.01 -0.281,-0.01 -1.916,0 -3.569,1.406 -3.852,3.33 l -2.211,14.994 H -81.09 l -2.211,-14.994 c -0.297,-2.018 -2.101,-3.469 -4.133,-3.32 l -38.555,2.751 c -1.936,0.139 -3.476,1.68 -3.611,3.616 L -130.721,0 -163.268,3.138 c 0.015,-3.498 0.06,-7.33 0.06,-8.093 0,-34.374 43.605,-50.896 97.781,-51.086 h 0.066 0.067 c 54.176,0.19 97.766,16.712 97.766,51.086 0,0.777 0.047,4.593 0.063,8.093 z" /></g><g
         style="stroke:#478cbf;stroke-width:13.26197243;stroke-miterlimit:4;stroke-dasharray:none;stroke-opacity:1;paint-order:markers stroke fill"
         transform="matrix(1.1310535,0,0,1.1310535,204.11393,318.93771)"
         id="g90"><path
           inkscape:connector-curvature="0"
           id="path92"
           style="fill:#ffffff;fill-opacity:1;fill-rule:nonzero;stroke:#478cbf;stroke-width:13.26197243;stroke-miterlimit:4;stroke-dasharray:none;stroke-opacity:1;paint-order:markers stroke fill"
           d="m 0,0 c 0,-12.052 -9.765,-21.815 -21.813,-21.815 -12.042,0 -21.81,9.763 -21.81,21.815 0,12.044 9.768,21.802 21.81,21.802 C -9.765,21.802 0,12.044 0,0" /></g><g
         style="fill:#000000;fill-opacity:1;stroke:none;stroke-width:0.88413143;stroke-opacity:1"
         transform="matrix(1.1310535,0,0,1.1310535,198.17748,317.47435)"
         id="g94"><path
           inkscape:connector-curvature="0"
           id="path96"
           style="fill:#000000;fill-opacity:1;fill-rule:nonzero;stroke:none;stroke-width:0.88413143;stroke-opacity:1"
           d="m 0,0 c 0,-7.994 -6.479,-14.473 -14.479,-14.473 -7.996,0 -14.479,6.479 -14.479,14.473 0,7.994 6.483,14.479 14.479,14.479 C -6.479,14.479 0,7.994 0,0" /></g><g
         style="fill:#478cbf;fill-opacity:1;stroke-width:0.88413143"
         transform="matrix(1.1310535,0,0,1.1310535,237.47503,292.01909)"
         id="g98"><path
           inkscape:connector-curvature="0"
           id="path100"
           style="fill:#478cbf;fill-opacity:1;fill-rule:nonzero;stroke:none;stroke-width:0.88413143"
           d="m 0,0 c -3.878,0 -7.021,2.858 -7.021,6.381 v 20.081 c 0,3.52 3.143,6.381 7.021,6.381 3.878,0 7.028,-2.861 7.028,-6.381 V 6.381 C 7.028,2.858 3.878,0 0,0" /></g><g
         style="stroke:#478cbf;stroke-width:13.26197243;stroke-miterlimit:4;stroke-dasharray:none;stroke-opacity:1;paint-order:markers stroke fill"
         transform="matrix(1.1310535,0,0,1.1310535,270.84021,318.93771)"
         id="g102"><path
           inkscape:connector-curvature="0"
           id="path104"
           style="fill:#ffffff;fill-opacity:1;fill-rule:nonzero;stroke:#478cbf;stroke-width:13.26197243;stroke-miterlimit:4;stroke-dasharray:none;stroke-opacity:1;paint-order:markers stroke fill"
           d="m 0,0 c 0,-12.052 9.765,-21.815 21.815,-21.815 12.041,0 21.808,9.763 21.808,21.815 0,12.044 -9.767,21.802 -21.808,21.802 C 9.765,21.802 0,12.044 0,0" /></g><g
         style="fill:#000000;fill-opacity:1;stroke:none;stroke-width:0.88413143;stroke-opacity:1"
         transform="matrix(1.1310535,0,0,1.1310535,276.77813,317.47435)"
         id="g106"><path
           inkscape:connector-curvature="0"
           id="path108"
           style="fill:#000000;fill-opacity:1;fill-rule:nonzero;stroke:none;stroke-width:0.88413143;stroke-opacity:1"
           d="m 0,0 c 0,-7.994 6.477,-14.473 14.471,-14.473 8.002,0 14.479,6.479 14.479,14.473 0,7.994 -6.477,14.479 -14.479,14.479 C 6.477,14.479 0,7.994 0,0" /></g><g
         id="flowRoot961"
         style="font-style:normal;font-variant:normal;font-weight:normal;font-stretch:normal;font-size:40px;line-height:1.25;font-family:Amaranth;-inkscape-font-specification:Amaranth;letter-spacing:0px;word-spacing:0px;fill:#000000;fill-opacity:1;stroke:none" /><g
         id="flowRoot969"
         style="font-style:normal;font-variant:normal;font-weight:normal;font-stretch:normal;font-size:40px;line-height:1.25;font-family:Amaranth;-inkscape-font-specification:Amaranth;letter-spacing:0px;word-spacing:0px;fill:#000000;fill-opacity:1;stroke:none"
         transform="matrix(1.2275811,0,0,-1.2275811,-39.901723,737.98042)"
         aria-label="Game engine"><path
           inkscape:connector-curvature="0"
           id="path978"
           style="font-weight:normal;fill:#000000;fill-opacity:1"
           d="m 382.92359,416.772 q 1.8,-0.88 2.76,-1.96 0.96,-1.04 1.4,-2.16 0.48,-1.08 0.52,-2.16 0.08,-1.12 0.08,-2.08 v -0.56 q -0.92,1.68 -2.68,2.6 -1.76,0.88 -4.08,0.88 -2.52,0 -4.32,-0.96 -1.8,-0.96 -2.96,-2.72 -1.16,-1.8 -1.72,-4.28 -0.52,-2.48 -0.52,-5.52 0,-3.12 0.72,-5.72 0.72,-2.64 2.16,-4.52 1.48,-1.92 3.68,-2.96 2.24,-1.08 5.28,-1.08 2.68,0 4.48,0.88 1.84,0.88 2.88,1.96 l -2.32,3.04 q -1.04,-1.04 -2.56,-1.6 -1.48,-0.6 -3.04,-0.6 -1.72,0 -2.88,0.8 -1.16,0.8 -1.88,2.2 -0.72,1.36 -1.04,3.24 -0.32,1.84 -0.32,3.96 0,2.28 0.28,4.16 0.32,1.84 0.92,3.2 0.64,1.32 1.64,2.08 1,0.72 2.44,0.72 0.92,0 1.88,-0.4 0.96,-0.44 1.72,-1.2 0.8,-0.8 1.28,-1.92 0.48,-1.12 0.48,-2.56 v -3.64 h 4.68 v 12.04 q 0,2.44 -0.68,4.08 -0.64,1.64 -1.68,2.72 -1,1.12 -2.28,1.84 -1.24,0.76 -2.48,1.36 z" /><path
           inkscape:connector-curvature="0"
           id="path980"
           style="font-weight:normal;fill:#000000;fill-opacity:1"
           d="m 412.58234,401.372 q 0,2.4 0.28,4.04 0.32,1.6 0.68,2.6 0.44,1.2 0.96,1.88 l -3.56,1.44 q -0.52,-0.52 -0.96,-1.24 -0.36,-0.64 -0.68,-1.52 -0.32,-0.92 -0.4,-2.16 -0.68,2.4 -2.2,3.64 -1.48,1.2 -4.04,1.2 -1.88,0 -3.28,-0.68 -1.36,-0.72 -2.28,-2 -0.92,-1.32 -1.36,-3.16 -0.44,-1.84 -0.44,-4.08 0,-2.28 0.68,-4.2 0.72,-1.96 1.96,-3.36 1.28,-1.4 3.04,-2.2 1.76,-0.8 3.88,-0.8 1.2,0 2.48,0.2 1.32,0.16 2.44,0.36 1.12,0.2 1.88,0.4 0.8,0.16 0.92,0.2 z m -9.16,6.68 q 1,0 1.84,-0.68 0.84,-0.68 1.44,-1.76 0.64,-1.12 0.96,-2.52 0.36,-1.44 0.36,-2.92 v -5.76 q -0.4,-0.12 -1.2,-0.28 -0.8,-0.16 -1.44,-0.16 -1.52,0 -2.52,0.52 -0.96,0.52 -1.56,1.44 -0.6,0.92 -0.84,2.2 -0.24,1.28 -0.24,2.8 0,1.4 0.08,2.68 0.08,1.28 0.4,2.28 0.36,1 1,1.6 0.64,0.56 1.72,0.56 z" /><path
           inkscape:connector-curvature="0"
           id="path982"
           style="font-weight:normal;fill:#000000;fill-opacity:1"
           d="m 439.96734,411.012 v -13.04 q 0,-1.68 -0.52,-2.64 -0.52,-1 -1.8,-1 -0.76,0 -1.56,0.44 -0.76,0.4 -1.4,1.2 -0.64,0.8 -1.04,1.92 -0.4,1.12 -0.4,2.48 v 10.64 h -4.52 v -13.04 q 0,-1.68 -0.52,-2.64 -0.52,-1 -1.8,-1 -0.8,0 -1.6,0.48 -0.76,0.44 -1.4,1.32 -0.6,0.88 -1,2.16 -0.36,1.24 -0.36,2.8 v 9.92 h -4.56 v -10.08 q 0,-2.4 -0.32,-4 -0.32,-1.64 -0.68,-2.64 -0.44,-1.16 -0.96,-1.88 l 3.6,-1.44 q 0.4,0.44 0.8,1.08 0.32,0.56 0.64,1.4 0.32,0.8 0.52,1.84 1,-2.4 2.8,-3.44 1.84,-1.08 3.88,-1.08 2.04,0 3.16,1.04 1.16,1.04 1.72,2.68 1.08,-2 2.76,-2.84 1.72,-0.88 3.6,-0.88 1.56,0 2.6,0.52 1.08,0.48 1.68,1.4 0.64,0.88 0.92,2.16 0.28,1.24 0.28,2.8 v 13.36 z" /><path
           inkscape:connector-curvature="0"
           id="path984"
           style="font-weight:normal;fill:#000000;fill-opacity:1"
           d="m 448.27109,401.532 q 0,-2.68 0.72,-4.72 0.76,-2.04 2.04,-3.4 1.32,-1.4 3.08,-2.08 1.76,-0.72 3.8,-0.72 1.8,0 3.04,0.44 1.28,0.44 2.08,1.2 0.8,0.76 1.16,1.8 0.4,1.04 0.4,2.24 0,1.44 -0.8,2.76 -0.8,1.28 -2.32,2.28 -1.48,0.96 -3.6,1.56 -2.12,0.56 -4.76,0.6 0.12,0.92 0.36,1.76 0.28,0.8 0.76,1.44 0.52,0.6 1.32,0.96 0.8,0.36 2,0.36 0.88,0 1.88,-0.2 1,-0.2 1.84,-0.48 1,-0.32 1.96,-0.72 l 1.2,2.84 q -1.04,0.52 -2.24,0.92 -1.04,0.36 -2.4,0.64 -1.36,0.28 -2.88,0.28 -2.32,0 -3.96,-0.68 -1.64,-0.72 -2.68,-2 -1.04,-1.28 -1.52,-3.08 -0.48,-1.8 -0.48,-4 z m 9.28,-7.8 q -1.32,0 -2.2,0.64 -0.84,0.6 -1.36,1.6 -0.52,0.96 -0.76,2.2 -0.2,1.2 -0.24,2.44 1.92,-0.08 3.24,-0.48 1.36,-0.44 2.2,-1.04 0.84,-0.64 1.2,-1.36 0.4,-0.72 0.4,-1.44 0,-1.16 -0.68,-1.84 -0.68,-0.72 -1.8,-0.72 z" /><path
           inkscape:connector-curvature="0"
           id="path986"
           style="font-weight:normal;fill:#000000;fill-opacity:1"
           d="m 477.41172,401.532 q 0,-2.68 0.72,-4.72 0.76,-2.04 2.04,-3.4 1.32,-1.4 3.08,-2.08 1.76,-0.72 3.8,-0.72 1.8,0 3.04,0.44 1.28,0.44 2.08,1.2 0.8,0.76 1.16,1.8 0.4,1.04 0.4,2.24 0,1.44 -0.8,2.76 -0.8,1.28 -2.32,2.28 -1.48,0.96 -3.6,1.56 -2.12,0.56 -4.76,0.6 0.12,0.92 0.36,1.76 0.28,0.8 0.76,1.44 0.52,0.6 1.32,0.96 0.8,0.36 2,0.36 0.88,0 1.88,-0.2 1,-0.2 1.84,-0.48 1,-0.32 1.96,-0.72 l 1.2,2.84 q -1.04,0.52 -2.24,0.92 -1.04,0.36 -2.4,0.64 -1.36,0.28 -2.88,0.28 -2.32,0 -3.96,-0.68 -1.64,-0.72 -2.68,-2 -1.04,-1.28 -1.52,-3.08 -0.48,-1.8 -0.48,-4 z m 9.28,-7.8 q -1.32,0 -2.2,0.64 -0.84,0.6 -1.36,1.6 -0.52,0.96 -0.76,2.2 -0.2,1.2 -0.24,2.44 1.92,-0.08 3.24,-0.48 1.36,-0.44 2.2,-1.04 0.84,-0.64 1.2,-1.36 0.4,-0.72 0.4,-1.44 0,-1.16 -0.68,-1.84 -0.68,-0.72 -1.8,-0.72 z" /><path
           inkscape:connector-curvature="0"
           id="path988"
           style="font-weight:normal;fill:#000000;fill-opacity:1"
           d="m 509.91797,411.012 v -12.92 q 0,-1.68 -0.6,-2.68 -0.6,-1.04 -2.04,-1.04 -0.92,0 -1.8,0.48 -0.84,0.44 -1.52,1.32 -0.68,0.88 -1.12,2.16 -0.4,1.24 -0.4,2.8 v 9.88 h -4.56 v -10.08 q 0,-2.4 -0.32,-4 -0.32,-1.64 -0.68,-2.64 -0.44,-1.16 -0.96,-1.88 l 3.6,-1.44 q 0.4,0.44 0.8,1.08 0.32,0.56 0.64,1.4 0.32,0.8 0.52,1.84 1.04,-2.4 3,-3.44 1.96,-1.08 4.12,-1.08 3.08,0 4.44,1.88 1.4,1.84 1.4,5 v 13.36 z" /><path
           inkscape:connector-curvature="0"
           id="path990"
           style="font-weight:normal;fill:#000000;fill-opacity:1"
           d="m 522.47109,414.532 q 0.6,0.24 1.28,0.48 0.68,0.28 1.44,0.52 0.76,0.24 1.52,0.4 0.8,0.16 1.56,0.16 2.24,0 3.24,-1.36 1,-1.32 1,-3.44 0,-2.08 -0.88,-4.2 -0.68,2.04 -2.16,3.12 -1.44,1.04 -3.84,1.04 -1.88,0 -3.28,-0.68 -1.36,-0.72 -2.28,-2 -0.92,-1.32 -1.36,-3.16 -0.44,-1.84 -0.44,-4.08 0,-2.28 0.68,-4.2 0.72,-1.96 1.96,-3.36 1.28,-1.4 3.04,-2.2 1.76,-0.8 3.88,-0.8 0.96,0 2.04,0.12 1.12,0.12 2.16,0.32 1.08,0.16 2,0.36 0.96,0.2 1.64,0.36 l -0.2,11 q -0.04,1.2 0.12,2.2 0.2,1 0.44,2 0.24,0.96 0.44,1.96 0.2,1 0.2,2.2 0,4.24 -2.16,6.32 -2.16,2.08 -5.84,2.08 -1.2,0 -2.4,-0.24 -1.2,-0.2 -2.24,-0.48 -1,-0.28 -1.72,-0.56 -0.72,-0.28 -0.96,-0.4 z m 3.92,-6.48 q 0.96,0 1.76,-0.64 0.84,-0.64 1.48,-1.68 0.64,-1.08 1,-2.44 0.36,-1.36 0.36,-2.8 v -6.08 q -0.4,-0.12 -1.2,-0.28 -0.8,-0.16 -1.44,-0.16 -1.52,0 -2.52,0.52 -0.96,0.52 -1.56,1.44 -0.6,0.92 -0.84,2.2 -0.24,1.28 -0.24,2.8 0,1.4 0.08,2.68 0.08,1.28 0.4,2.28 0.36,1 1,1.6 0.64,0.56 1.72,0.56 z" /><path
           inkscape:connector-curvature="0"
           id="path992"
           style="font-weight:normal;fill:#000000;fill-opacity:1"
           d="m 544.92109,411.172 q -2.12,0 -3.24,-1.24 -1.12,-1.28 -1.12,-3.28 v -15.56 h 4.56 v 15.16 q 0,0.92 0.28,1.24 0.28,0.32 0.84,0.32 0.16,0 0.32,0 0.2,0 0.36,-0.04 0.16,0 0.36,-0.04 l 0.48,2.88 q -0.28,0.16 -0.72,0.28 -0.36,0.12 -0.92,0.2 -0.52,0.08 -1.2,0.08 z m -2,-28.96 q 1.28,0 1.96,0.76 0.68,0.76 0.68,1.96 0,1.2 -0.72,2 -0.68,0.8 -2.04,0.8 -1.28,0 -2,-0.76 -0.68,-0.8 -0.68,-1.92 0,-1.24 0.68,-2.04 0.72,-0.8 2.12,-0.8 z" /><path
           inkscape:connector-curvature="0"
           id="path994"
           style="font-weight:normal;fill:#000000;fill-opacity:1"
           d="m 563.35547,411.012 v -12.92 q 0,-1.68 -0.6,-2.68 -0.6,-1.04 -2.04,-1.04 -0.92,0 -1.8,0.48 -0.84,0.44 -1.52,1.32 -0.68,0.88 -1.12,2.16 -0.4,1.24 -0.4,2.8 v 9.88 h -4.56 v -10.08 q 0,-2.4 -0.32,-4 -0.32,-1.64 -0.68,-2.64 -0.44,-1.16 -0.96,-1.88 l 3.6,-1.44 q 0.4,0.44 0.8,1.08 0.32,0.56 0.64,1.4 0.32,0.8 0.52,1.84 1.04,-2.4 3,-3.44 1.96,-1.08 4.12,-1.08 3.08,0 4.44,1.88 1.4,1.84 1.4,5 v 13.36 z" /><path
           inkscape:connector-curvature="0"
           id="path996"
           style="font-weight:normal;fill:#000000;fill-opacity:1"
           d="m 571.70859,401.532 q 0,-2.68 0.72,-4.72 0.76,-2.04 2.04,-3.4 1.32,-1.4 3.08,-2.08 1.76,-0.72 3.8,-0.72 1.8,0 3.04,0.44 1.28,0.44 2.08,1.2 0.8,0.76 1.16,1.8 0.4,1.04 0.4,2.24 0,1.44 -0.8,2.76 -0.8,1.28 -2.32,2.28 -1.48,0.96 -3.6,1.56 -2.12,0.56 -4.76,0.6 0.12,0.92 0.36,1.76 0.28,0.8 0.76,1.44 0.52,0.6 1.32,0.96 0.8,0.36 2,0.36 0.88,0 1.88,-0.2 1,-0.2 1.84,-0.48 1,-0.32 1.96,-0.72 l 1.2,2.84 q -1.04,0.52 -2.24,0.92 -1.04,0.36 -2.4,0.64 -1.36,0.28 -2.88,0.28 -2.32,0 -3.96,-0.68 -1.64,-0.72 -2.68,-2 -1.04,-1.28 -1.52,-3.08 -0.48,-1.8 -0.48,-4 z m 9.28,-7.8 q -1.32,0 -2.2,0.64 -0.84,0.6 -1.36,1.6 -0.52,0.96 -0.76,2.2 -0.2,1.2 -0.24,2.44 1.92,-0.08 3.24,-0.48 1.36,-0.44 2.2,-1.04 0.84,-0.64 1.2,-1.36 0.4,-0.72 0.4,-1.44 0,-1.16 -0.68,-1.84 -0.68,-0.72 -1.8,-0.72 z" /></g><g
         id="flowRoot969-0"
         style="font-style:normal;font-variant:normal;font-weight:normal;font-stretch:normal;font-size:40px;line-height:1.25;font-family:Amaranth;-inkscape-font-specification:Amaranth;letter-spacing:0px;word-spacing:0px;fill:#6d6e71;fill-opacity:1;stroke:none"
         transform="matrix(1.2275811,0,0,-1.2275811,-39.351726,911.43551)"
         aria-label="Game engine"><flowRoot
           xml:space="preserve"
           id="flowRoot2627"
           style="font-style:normal;font-weight:normal;font-size:40px;line-height:1.25;font-family:sans-serif;letter-spacing:0px;word-spacing:0px;fill:#000000;fill-opacity:1;stroke:none"
           transform="matrix(0.98838145,0,0,0.98838145,216.29432,380.49883)"><flowRegion
             id="flowRegion2629"
             style="fill:#000000;fill-opacity:1"><rect
               id="rect2631"
               width="288.88858"
               height="132.81779"
               x="156.07077"
               y="-4.4942951"
               style="fill:#000000;fill-opacity:1" /></flowRegion><flowPara
             id="flowPara2633"
             style="font-style:normal;font-variant:normal;font-weight:normal;font-stretch:normal;font-family:Amaranth;-inkscape-font-specification:Amaranth;fill:#000000;fill-opacity:1">Made with</flowPara></flowRoot></g></g></g></svg>