<?xml version="1.0" encoding="UTF-8" standalone="no"?>
<!-- Created with Inkscape (http://www.inkscape.org/) -->

<!-- lol no I actually made most of this by hand -->

<svg
   xmlns:dc="http://purl.org/dc/elements/1.1/"
   xmlns:cc="http://creativecommons.org/ns#"
   xmlns:rdf="http://www.w3.org/1999/02/22-rdf-syntax-ns#"
   xmlns:svg="http://www.w3.org/2000/svg"
   xmlns="http://www.w3.org/2000/svg"
   xmlns:sodipodi="http://sodipodi.sourceforge.net/DTD/sodipodi-0.dtd"
   xmlns:inkscape="http://www.inkscape.org/namespaces/inkscape"
   width="50"
   height="60"
   viewBox="0 0 50 60"
   version="1.1"
   id="svg1718"
   inkscape:version="0.92.4 5da689c313, 2019-01-14"
   sodipodi:docname="spell-lock.svg">
  <defs
     id="defs1712" />
  <sodipodi:namedview
     id="base"
     pagecolor="#ffffff"
     bordercolor="#666666"
     borderopacity="1.0"
     inkscape:pageopacity="0.0"
     inkscape:pageshadow="2"
     inkscape:zoom="4"
     inkscape:cx="-16.08275"
     inkscape:cy="39.308023"
     inkscape:document-units="px"
     inkscape:current-layer="layer1"
     showgrid="false"
     fit-margin-top="0"
     fit-margin-left="0"
     fit-margin-right="0"
     fit-margin-bottom="0"
     inkscape:window-width="1920"
     inkscape:window-height="1052"
     inkscape:window-x="0"
     inkscape:window-y="0"
     inkscape:window-maximized="1"
     inkscape:snap-global="true"
     showguides="true"
     inkscape:guide-bbox="true" />
  <metadata
     id="metadata1715">
    <rdf:RDF>
      <cc:Work
         rdf:about="">
        <dc:format>image/svg+xml</dc:format>
        <dc:type
           rdf:resource="http://purl.org/dc/dcmitype/StillImage" />
        <dc:title />
      </cc:Work>
    </rdf:RDF>
  </metadata>
  <g
     inkscape:label="Layer 1"
     inkscape:groupmode="layer"
     id="layer1"
     transform="translate(76.972533,36.649524)">
    <path
       style="fill:#070707;fill-opacity:1;stroke:#000000;stroke-width:10;stroke-linecap:round;stroke-linejoin:round;stroke-miterlimit:4;stroke-dasharray:none;stroke-opacity:1;paint-order:markers stroke fill"
       d="m -5.3779699,-12.157498 v 22.300854 c 3.771766,3.373123 24.2475869,3.810209 29.2944189,0 v -22.408911 z"
       id="path1203-3"
       inkscape:connector-curvature="0"
       sodipodi:nodetypes="ccccc" />
    <path
       style="fill:none;stroke:#000000;stroke-width:5;stroke-linecap:butt;stroke-linejoin:miter;stroke-miterlimit:4;stroke-dasharray:none;stroke-opacity:1"
       d="m -0.58019989,-13.62722 0,-8.571429 c -0.44652071,-13.392047 19.99020089,-12.765794 19.59331489,0 l 0,9.017857"
       id="path1205-6"
       inkscape:connector-curvature="0"
       sodipodi:nodetypes="cccc" />
    <circle
       style="fill:#ffffff;fill-opacity:1;stroke:none;stroke-width:5;stroke-linecap:round;stroke-linejoin:round;stroke-miterlimit:4;stroke-dasharray:none;stroke-opacity:1;paint-order:markers stroke fill"
       id="path1244-7"
       cx="9.3498173"
       cy="-5.015542"
       r="5.8035712" />
    <path
       style="fill:#ffffff;fill-opacity:1;stroke:none;stroke-width:1px;stroke-linecap:butt;stroke-linejoin:miter;stroke-opacity:1"
       d="M 7.5641041,-2.7833991 3.0363731,9.0267526 H 15.867675 L 11.294744,-2.2378051 Z"
       id="path1246-5"
       inkscape:connector-curvature="0"
       sodipodi:nodetypes="ccccc" />
    <path
       style="color:#000000;font-style:normal;font-variant:normal;font-weight:normal;font-stretch:normal;font-size:medium;line-height:normal;font-family:sans-serif;font-variant-ligatures:normal;font-variant-position:normal;font-variant-caps:normal;font-variant-numeric:normal;font-variant-alternates:normal;font-feature-settings:normal;text-indent:0;text-align:start;text-decoration:none;text-decoration-line:none;text-decoration-style:solid;text-decoration-color:#000000;letter-spacing:normal;word-spacing:normal;text-transform:none;writing-mode:lr-tb;direction:ltr;text-orientation:mixed;dominant-baseline:auto;baseline-shift:baseline;text-anchor:start;white-space:normal;shape-padding:0;clip-rule:nonzero;display:inline;overflow:visible;visibility:visible;opacity:1;isolation:auto;mix-blend-mode:normal;color-interpolation:sRGB;color-interpolation-filters:linearRGB;solid-color:#000000;solid-opacity:1;vector-effect:none;fill:#3b4954;fill-opacity:1;fill-rule:nonzero;stroke:#fdfdfe;stroke-width:6;stroke-linecap:round;stroke-linejoin:round;stroke-miterlimit:4;stroke-dasharray:none;stroke-dashoffset:0;stroke-opacity:1;paint-order:markers stroke fill;color-rendering:auto;image-rendering:auto;shape-rendering:auto;text-rendering:auto;enable-background:accumulate"
       d="m -52.093906,-32.82112 c -3.046207,-0.04766 -6.149238,0.883588 -8.539062,2.986328 -2.389824,2.102741 -3.910118,5.424098 -3.777344,9.40625 v 4.949219 l -2.316406,0.0078 c -2.754442,0.01 -4.982165,2.24554 -4.982422,5 v 22.300782 c 4.57e-4,1.422924 0.607094,2.778268 1.667969,3.726562 2.578548,2.306018 4.996418,2.628246 7.904297,3.152344 2.90788,0.524098 6.201197,0.78502 9.552734,0.814453 3.351537,0.02943 6.734039,-0.172714 9.804688,-0.677735 3.070647,-0.50502 5.78099,-1.065514 8.376953,-3.02539 1.251807,-0.944702 1.987905,-2.42196 1.988281,-3.990234 v -22.408204 c -2.57e-4,-2.768954 -2.250597,-5.010539 -5.019531,-5 l -2.384766,0.0078 v -4.863281 c 0.119949,-3.858158 -1.430019,-7.116242 -3.796875,-9.216797 -2.366857,-2.100555 -5.432308,-3.122265 -8.478516,-3.169922 z m -0.07813,5 c 1.957547,0.03063 3.898831,0.721411 5.238282,1.910156 1.339451,1.188746 2.195681,2.795574 2.117187,5.320313 l -0.002,0.03906 v 5 l -14.591797,0.05273 v -5.054687 l -0.002,-0.04297 c -0.09049,-2.713872 0.777956,-4.336956 2.082031,-5.484375 1.304075,-1.147419 3.200656,-1.770859 5.158203,-1.740234 z m 0.191407,18.6875001 a 5.8035712,5.8035712 0 0 1 5.802734,5.802734 5.8035712,5.8035712 0 0 1 -2.941406,5.041016 l 3.65625,9.0019529 h -12.832032 l 3.449219,-8.9999999 a 5.8035712,5.8035712 0 0 1 -2.939453,-5.042969 5.8035712,5.8035712 0 0 1 5.804688,-5.802734 z"
       id="path1203-3-3"
       inkscape:connector-curvature="0" />
  </g>
</svg>
