<?xml version="1.0" encoding="UTF-8" standalone="no"?>
<!-- Created with Inkscape (http://www.inkscape.org/) -->

<svg
   xmlns:dc="http://purl.org/dc/elements/1.1/"
   xmlns:cc="http://creativecommons.org/ns#"
   xmlns:rdf="http://www.w3.org/1999/02/22-rdf-syntax-ns#"
   xmlns:svg="http://www.w3.org/2000/svg"
   xmlns="http://www.w3.org/2000/svg"
   xmlns:sodipodi="http://sodipodi.sourceforge.net/DTD/sodipodi-0.dtd"
   xmlns:inkscape="http://www.inkscape.org/namespaces/inkscape"
   width="96"
   height="96"
   viewBox="0 0 25.399997 25.399999"
   version="1.1"
   id="svg1718"
   inkscape:version="0.92.4 5da689c313, 2019-01-14"
   sodipodi:docname="bloodlust_1.svg">
  <defs
     id="defs1712">
    <mask
       maskUnits="userSpaceOnUse"
       id="mask1853">
      <rect
         style="opacity:1;vector-effect:none;fill:#ffffff;fill-opacity:1;stroke:none;stroke-width:2.64583325;stroke-linecap:round;stroke-linejoin:miter;stroke-miterlimit:4;stroke-dasharray:none;stroke-dashoffset:0;stroke-opacity:1;paint-order:markers stroke fill"
         id="rect1855"
         width="14.616189"
         height="42.31002"
         x="545.13489"
         y="-163.02531" />
    </mask>
  </defs>
  <sodipodi:namedview
     id="base"
     pagecolor="#ffffff"
     bordercolor="#666666"
     borderopacity="1.0"
     inkscape:pageopacity="0.0"
     inkscape:pageshadow="2"
     inkscape:zoom="5.8087569"
     inkscape:cx="46.930478"
     inkscape:cy="48.028613"
     inkscape:document-units="px"
     inkscape:current-layer="layer1"
     showgrid="false"
     fit-margin-top="0"
     fit-margin-left="0"
     fit-margin-right="0"
     fit-margin-bottom="0"
     inkscape:window-width="1344"
     inkscape:window-height="1052"
     inkscape:window-x="0"
     inkscape:window-y="0"
     inkscape:window-maximized="0"
     inkscape:snap-global="false"
     units="px" />
  <metadata
     id="metadata1715">
    <rdf:RDF>
      <cc:Work
         rdf:about="">
        <dc:format>image/svg+xml</dc:format>
        <dc:type
           rdf:resource="http://purl.org/dc/dcmitype/StillImage" />
        <dc:title />
      </cc:Work>
    </rdf:RDF>
  </metadata>
  <g
     inkscape:label="Layer 1"
     inkscape:groupmode="layer"
     id="layer1"
     transform="translate(-59.067602,-118.91057)">
    <path
       style="color:#000000;font-style:normal;font-variant:normal;font-weight:normal;font-stretch:normal;font-size:medium;line-height:normal;font-family:sans-serif;font-variant-ligatures:normal;font-variant-position:normal;font-variant-caps:normal;font-variant-numeric:normal;font-variant-alternates:normal;font-feature-settings:normal;text-indent:0;text-align:start;text-decoration:none;text-decoration-line:none;text-decoration-style:solid;text-decoration-color:#000000;letter-spacing:normal;word-spacing:normal;text-transform:none;writing-mode:lr-tb;direction:ltr;text-orientation:mixed;dominant-baseline:auto;baseline-shift:baseline;text-anchor:start;white-space:normal;shape-padding:0;clip-rule:nonzero;display:inline;overflow:visible;visibility:visible;opacity:1;isolation:auto;mix-blend-mode:normal;color-interpolation:sRGB;color-interpolation-filters:linearRGB;solid-color:#000000;solid-opacity:1;vector-effect:none;fill:#f3f3f3;fill-opacity:1;fill-rule:evenodd;stroke:#868686;stroke-width:2.64583302;stroke-linecap:round;stroke-linejoin:round;stroke-miterlimit:4;stroke-dasharray:none;stroke-dashoffset:0;stroke-opacity:1;paint-order:markers stroke fill;color-rendering:auto;image-rendering:auto;shape-rendering:auto;text-rendering:auto;enable-background:accumulate"
       d="m 77.029924,126.35154 c -1.166956,0.0151 -2.322665,0.42843 -3.235309,1.31177 -1.550028,1.50026 -1.857949,4.17842 -0.118851,5.73358 0.58478,0.52293 1.358264,0.81555 2.144502,0.81449 0.786237,-9.1e-4 1.615348,-0.33589 2.120074,-1.07712 0.289469,-0.42511 0.406539,-0.94161 0.332127,-1.47736 -0.03721,-0.26787 -0.132296,-0.54754 -0.330248,-0.78836 -0.197953,-0.24082 -0.507068,-0.42323 -0.850755,-0.47769 a 0.601559,0.59735403 0 1 0 -0.189787,1.17975 c 0.08139,0.0129 0.08495,0.0246 0.108047,0.0527 0.0231,0.0281 0.05721,0.0937 0.0714,0.19593 0.0284,0.20445 -0.05667,0.52947 -0.136703,0.64701 -0.26678,0.39179 -0.655579,0.54936 -1.12604,0.54999 -0.470461,6.2e-4 -0.991846,-0.19626 -1.338375,-0.50614 -1.163082,-1.04006 -0.94111,-2.93169 0.154084,-3.99172 1.554256,-1.50436 4.140631,-1.16734 5.564901,0.39698 1.859909,2.04279 1.394685,5.29397 -0.666135,7.05561 -0.918966,0.78555 -2.099043,1.25927 -3.31423,1.35374 a 0.60152159,0.59731688 0 0 0 -0.01315,4.8e-4 l -12.103635,0.51127 a 0.60162652,0.59742108 0 1 0 0.05167,1.19374 l 12.063235,-0.50987 a 0.60136626,0.59716264 0 0 0 0.07422,-0.003 c 1.473384,-0.10986 2.899084,-0.6775 4.026872,-1.64156 2.546745,-2.17703 3.118418,-6.18381 0.772303,-8.76062 -0.925988,-1.01704 -2.22808,-1.63439 -3.559921,-1.7456 -0.16648,-0.0139 -0.333597,-0.0199 -0.500305,-0.0177 z m -8.851414,1.96811 c -0.790044,0.0113 -1.573176,0.2938 -2.194298,0.89892 -1.065724,1.03829 -1.277144,2.89353 -0.06953,3.98053 0.414143,0.37278 0.951973,0.57546 1.507963,0.57471 0.555991,-7.6e-4 1.160635,-0.24431 1.523935,-0.78136 0.221581,-0.32755 0.302642,-0.69372 0.2471,-1.09624 -0.02777,-0.20127 -0.09924,-0.41854 -0.256495,-0.6111 -0.157258,-0.19257 -0.410919,-0.33971 -0.676469,-0.38205 a 0.59939914,0.59912245 0 0 0 -0.258374,1.16808 c 0.0046,0.0751 -0.03704,0.23141 -0.04933,0.24957 -0.126134,0.18645 -0.291474,0.25578 -0.53272,0.2561 -0.241244,3.3e-4 -0.526575,-0.10828 -0.703246,-0.2673 -0.633488,-0.57022 -0.509028,-1.63645 0.10335,-2.23307 0.889659,-0.86674 2.389993,-0.66834 3.216048,0.24491 1.09182,1.20705 0.816735,3.14455 -0.402593,4.19371 -0.543842,0.46795 -1.24605,0.75226 -1.968338,0.81076 a 0.60136626,0.59716264 0 0 0 -0.0498,0 l -6.143188,0.15534 a 0.60136626,0.59716264 0 1 0 0.03007,1.19327 l 6.114532,-0.15394 a 0.59947245,0.59919572 0 0 0 0.117913,0.003 c 0.980299,-0.0736 1.928531,-0.45301 2.68098,-1.10044 1.703662,-1.46591 2.086607,-4.16291 0.51017,-5.90573 -0.62618,-0.69227 -1.507382,-1.1113 -2.408983,-1.18581 -0.112699,-0.009 -0.225841,-0.0133 -0.338704,-0.0117 z"
       id="path1393"
       inkscape:connector-curvature="0" />
    <path
       sodipodi:type="star"
       style="opacity:1;fill:#ffd7d7;fill-opacity:1;fill-rule:nonzero;stroke:#ff4c2b;stroke-width:1.07198787;stroke-linecap:round;stroke-linejoin:round;stroke-miterlimit:4;stroke-dasharray:none;stroke-dashoffset:0;stroke-opacity:1;paint-order:markers stroke fill"
       id="path1153-3"
       sodipodi:sides="4"
       sodipodi:cx="68.387077"
       sodipodi:cy="128.69542"
       sodipodi:r1="1.1360182"
       sodipodi:r2="0.37907171"
       sodipodi:arg1="0.80010299"
       sodipodi:arg2="1.5855012"
       inkscape:flatsided="false"
       inkscape:rounded="0"
       inkscape:randomized="0"
       d="m 69.178465,129.51043 -0.796962,-0.43598 -0.809437,0.41236 0.435981,-0.79696 -0.412357,-0.80944 0.796961,0.43598 0.809437,-0.41236 -0.43598,0.79696 z"
       inkscape:transform-center-x="0.06577215"
       inkscape:transform-center-y="-0.18069641"
       transform="matrix(2.3245367,0.82813045,-0.83351819,2.3237023,28.392518,-223.54954)" />
    <path
       sodipodi:type="star"
       style="opacity:1;fill:#ffd7d7;fill-opacity:1;fill-rule:nonzero;stroke:#ff4c2b;stroke-width:1.07198787;stroke-linecap:round;stroke-linejoin:round;stroke-miterlimit:4;stroke-dasharray:none;stroke-dashoffset:0;stroke-opacity:1;paint-order:markers stroke fill"
       id="path1153-3-3"
       sodipodi:sides="4"
       sodipodi:cx="68.387077"
       sodipodi:cy="128.69542"
       sodipodi:r1="1.1360182"
       sodipodi:r2="0.37907171"
       sodipodi:arg1="0.80010299"
       sodipodi:arg2="1.5855012"
       inkscape:flatsided="false"
       inkscape:rounded="0"
       inkscape:randomized="0"
       d="m 69.178465,129.51043 -0.796962,-0.43598 -0.809437,0.41236 0.435981,-0.79696 -0.412357,-0.80944 0.796961,0.43598 0.809437,-0.41236 -0.43598,0.79696 z"
       inkscape:transform-center-x="-0.029299549"
       inkscape:transform-center-y="-0.19005126"
       transform="matrix(1.6391839,1.8445452,-1.8488666,1.6358598,195.4594,-201.96491)" />
    <path
       sodipodi:type="star"
       style="opacity:1;fill:#ffd7d7;fill-opacity:1;fill-rule:nonzero;stroke:#ff4c2b;stroke-width:1.07198787;stroke-linecap:round;stroke-linejoin:round;stroke-miterlimit:4;stroke-dasharray:none;stroke-dashoffset:0;stroke-opacity:1;paint-order:markers stroke fill"
       id="path1153-3-3-6"
       sodipodi:sides="4"
       sodipodi:cx="68.387077"
       sodipodi:cy="128.69542"
       sodipodi:r1="1.1360182"
       sodipodi:r2="0.37907171"
       sodipodi:arg1="0.80010299"
       sodipodi:arg2="1.5855012"
       inkscape:flatsided="false"
       inkscape:rounded="0"
       inkscape:randomized="0"
       d="m 69.178465,129.51043 -0.796962,-0.43598 -0.809437,0.41236 0.435981,-0.79696 -0.412357,-0.80944 0.796961,0.43598 0.809437,-0.41236 -0.43598,0.79696 z"
       inkscape:transform-center-x="-0.034841565"
       inkscape:transform-center-y="-0.18910118"
       transform="matrix(1.5845222,1.8917084,-1.8959307,1.5810731,210.46986,-207.11776)" />
    <path
       sodipodi:type="star"
       style="opacity:1;fill:#ffd7d7;fill-opacity:1;fill-rule:nonzero;stroke:#ff4c2b;stroke-width:1.07198787;stroke-linecap:round;stroke-linejoin:round;stroke-miterlimit:4;stroke-dasharray:none;stroke-dashoffset:0;stroke-opacity:1;paint-order:markers stroke fill"
       id="path1153-3-3-7"
       sodipodi:sides="4"
       sodipodi:cx="68.387077"
       sodipodi:cy="128.69542"
       sodipodi:r1="1.1360182"
       sodipodi:r2="0.37907171"
       sodipodi:arg1="0.80010299"
       sodipodi:arg2="1.5855012"
       inkscape:flatsided="false"
       inkscape:rounded="0"
       inkscape:randomized="0"
       d="m 69.178465,129.51043 -0.796962,-0.43598 -0.809437,0.41236 0.435981,-0.79696 -0.412357,-0.80944 0.796961,0.43598 0.809437,-0.41236 -0.43598,0.79696 z"
       inkscape:transform-center-x="-0.17113739"
       inkscape:transform-center-y="-0.087679737"
       transform="matrix(-0.53332104,2.4093235,-2.409164,-0.53877069,410.69493,33.178142)" />
  </g>
</svg>
