<?xml version="1.0" encoding="UTF-8" standalone="no"?>
<!-- Created with Inkscape (http://www.inkscape.org/) -->

<svg
   xmlns:dc="http://purl.org/dc/elements/1.1/"
   xmlns:cc="http://creativecommons.org/ns#"
   xmlns:rdf="http://www.w3.org/1999/02/22-rdf-syntax-ns#"
   xmlns:svg="http://www.w3.org/2000/svg"
   xmlns="http://www.w3.org/2000/svg"
   xmlns:sodipodi="http://sodipodi.sourceforge.net/DTD/sodipodi-0.dtd"
   xmlns:inkscape="http://www.inkscape.org/namespaces/inkscape"
   width="96"
   height="96"
   viewBox="0 0 25.399997 25.399999"
   version="1.1"
   id="svg1718"
   inkscape:version="0.92.4 5da689c313, 2019-01-14"
   sodipodi:docname="refinement_1.svg">
  <defs
     id="defs1712">
    <mask
       maskUnits="userSpaceOnUse"
       id="mask1853">
      <rect
         style="opacity:1;vector-effect:none;fill:#ffffff;fill-opacity:1;stroke:none;stroke-width:2.64583325;stroke-linecap:round;stroke-linejoin:miter;stroke-miterlimit:4;stroke-dasharray:none;stroke-dashoffset:0;stroke-opacity:1;paint-order:markers stroke fill"
         id="rect1855"
         width="14.616189"
         height="42.31002"
         x="545.13489"
         y="-163.02531" />
    </mask>
  </defs>
  <sodipodi:namedview
     id="base"
     pagecolor="#ffffff"
     bordercolor="#666666"
     borderopacity="1.0"
     inkscape:pageopacity="0.0"
     inkscape:pageshadow="2"
     inkscape:zoom="6.2193011"
     inkscape:cx="50.366812"
     inkscape:cy="30.977112"
     inkscape:document-units="px"
     inkscape:current-layer="layer1"
     showgrid="false"
     fit-margin-top="0"
     fit-margin-left="0"
     fit-margin-right="0"
     fit-margin-bottom="0"
     inkscape:window-width="1344"
     inkscape:window-height="1052"
     inkscape:window-x="0"
     inkscape:window-y="0"
     inkscape:window-maximized="0"
     inkscape:snap-global="false"
     units="px" />
  <metadata
     id="metadata1715">
    <rdf:RDF>
      <cc:Work
         rdf:about="">
        <dc:format>image/svg+xml</dc:format>
        <dc:type
           rdf:resource="http://purl.org/dc/dcmitype/StillImage" />
        <dc:title />
      </cc:Work>
    </rdf:RDF>
  </metadata>
  <g
     inkscape:label="Layer 1"
     inkscape:groupmode="layer"
     id="layer1"
     transform="translate(-59.067602,-118.91057)">
    <path
       style="fill:#82dc00;fill-opacity:1;stroke:#477800;stroke-width:2.64583302;stroke-linecap:butt;stroke-linejoin:miter;stroke-miterlimit:4;stroke-dasharray:none;stroke-opacity:1;paint-order:markers stroke fill"
       d="m 70.561262,137.85871 c 1.988956,-1.14896 4.819667,-0.14958 7.433071,0.29514 -1.21337,2.31225 -3.219848,3.81392 -4.234665,3.65359 -3.205469,-0.31542 -3.000814,-2.55823 -3.198406,-3.94873 z"
       id="path853-3-5"
       inkscape:connector-curvature="0"
       sodipodi:nodetypes="cccc" />
    <path
       style="color:#000000;font-style:normal;font-variant:normal;font-weight:normal;font-stretch:normal;font-size:medium;line-height:normal;font-family:sans-serif;font-variant-ligatures:normal;font-variant-position:normal;font-variant-caps:normal;font-variant-numeric:normal;font-variant-alternates:normal;font-feature-settings:normal;text-indent:0;text-align:start;text-decoration:none;text-decoration-line:none;text-decoration-style:solid;text-decoration-color:#000000;letter-spacing:normal;word-spacing:normal;text-transform:none;writing-mode:lr-tb;direction:ltr;text-orientation:mixed;dominant-baseline:auto;baseline-shift:baseline;text-anchor:start;white-space:normal;shape-padding:0;clip-rule:nonzero;display:inline;overflow:visible;visibility:visible;opacity:1;isolation:auto;mix-blend-mode:normal;color-interpolation:sRGB;color-interpolation-filters:linearRGB;solid-color:#000000;solid-opacity:1;vector-effect:none;fill:#6bb500;fill-opacity:1;fill-rule:nonzero;stroke:#477800;stroke-width:2.64583302;stroke-linecap:round;stroke-linejoin:miter;stroke-miterlimit:4;stroke-dasharray:none;stroke-dashoffset:0;stroke-opacity:1;paint-order:markers stroke fill;color-rendering:auto;image-rendering:auto;shape-rendering:auto;text-rendering:auto;enable-background:accumulate"
       d="m 75.986258,121.53881 a 1.5876586,1.5876586 0 0 0 -1.550781,1.62305 c 0.02557,3.34992 -1.755178,5.39098 -3.945312,7.82031 -2.190134,2.42933 -4.827939,5.22885 -4.898438,9.5293 a 1.5876586,1.5876586 0 1 0 3.173828,0.0508 c 0.04983,-3.03954 1.865161,-4.99414 4.082031,-7.45313 2.216871,-2.45898 4.798268,-5.4411 4.763668,-9.97265 a 1.5876586,1.5876586 0 0 0 -1.624996,-1.59766 z"
       id="path826"
       inkscape:connector-curvature="0" />
    <path
       style="fill:#82dc00;fill-opacity:1;stroke:#477800;stroke-width:2.64583278;stroke-linecap:butt;stroke-linejoin:miter;stroke-miterlimit:4;stroke-dasharray:none;stroke-opacity:1;paint-order:markers stroke fill"
       d="m 74.143329,125.06069 c -1.153899,-2.0384 -4.155315,-2.62043 -6.679757,-3.57848 -0.127324,2.66184 0.86,5.01974 1.833896,5.40264 2.977668,1.37759 3.954993,-0.70225 4.845861,-1.82416 z"
       id="path853-3"
       inkscape:connector-curvature="0"
       sodipodi:nodetypes="cccc" />
    <path
       style="fill:#97ff7a;fill-opacity:1;stroke:#5a9700;stroke-width:2.64583302;stroke-linecap:butt;stroke-linejoin:miter;stroke-miterlimit:4;stroke-dasharray:none;stroke-opacity:1;paint-order:markers stroke fill"
       d="m 75.788893,130.84283 c 0.876296,-2.12325 3.729459,-3.05659 6.072256,-4.29714 0.447653,2.57262 -0.227522,4.98615 -1.129722,5.47767 -2.733312,1.70397 -3.938267,-0.1987 -4.942534,-1.18053 z"
       id="path853"
       inkscape:connector-curvature="0"
       sodipodi:nodetypes="cccc" />
    <path
       style="color:#000000;font-style:normal;font-variant:normal;font-weight:normal;font-stretch:normal;font-size:medium;line-height:normal;font-family:sans-serif;font-variant-ligatures:normal;font-variant-position:normal;font-variant-caps:normal;font-variant-numeric:normal;font-variant-alternates:normal;font-feature-settings:normal;text-indent:0;text-align:start;text-decoration:none;text-decoration-line:none;text-decoration-style:solid;text-decoration-color:#000000;letter-spacing:normal;word-spacing:normal;text-transform:none;writing-mode:lr-tb;direction:ltr;text-orientation:mixed;dominant-baseline:auto;baseline-shift:baseline;text-anchor:start;white-space:normal;shape-padding:0;clip-rule:nonzero;display:inline;overflow:visible;visibility:visible;opacity:1;isolation:auto;mix-blend-mode:normal;color-interpolation:sRGB;color-interpolation-filters:linearRGB;solid-color:#000000;solid-opacity:1;vector-effect:none;fill:#9affb6;fill-opacity:1;fill-rule:nonzero;stroke:#77ca00;stroke-width:2.64583302;stroke-linecap:round;stroke-linejoin:miter;stroke-miterlimit:4;stroke-dasharray:none;stroke-dashoffset:0;stroke-opacity:1;paint-order:markers stroke fill;color-rendering:auto;image-rendering:auto;shape-rendering:auto;text-rendering:auto;enable-background:accumulate"
       d="m 64.027274,121.53881 a 1.5876585,1.5876585 0 0 0 -1.585938,1.58789 c -0.03551,2.51633 1.28089,4.58793 2.972657,6.18555 1.691767,1.59762 3.801464,2.86907 5.845703,4.0957 2.044239,1.22664 4.026867,2.40803 5.408203,3.61719 1.381335,1.20916 2.083125,2.30574 2.121095,3.55859 a 1.5876585,1.5876585 0 1 0 3.17383,-0.0957 c -0.0733,-2.41714 -1.48279,-4.34395 -3.20508,-5.85156 -1.72229,-1.50762 -3.834231,-2.73365 -5.863282,-3.95117 -2.029052,-1.21753 -3.972336,-2.42517 -5.300782,-3.67969 -1.328446,-1.25452 -1.998615,-2.40958 -1.978515,-3.83399 a 1.5876585,1.5876585 0 0 0 -1.587891,-1.63281 z"
       id="path826-3"
       inkscape:connector-curvature="0" />
    <path
       style="fill:#97ff7a;fill-opacity:1;stroke:#5a9700;stroke-width:2.64583302;stroke-linecap:butt;stroke-linejoin:miter;stroke-miterlimit:4;stroke-dasharray:none;stroke-opacity:1;paint-order:markers stroke fill"
       d="m 69.781835,132.46149 c -1.863243,-1.7603 -5.208421,-1.41275 -8.171013,-1.60939 0.712598,2.81869 2.502092,4.96548 3.649248,5.05522 3.573215,0.49031 3.940661,-1.99141 4.521765,-3.44583 z"
       id="path853-5"
       inkscape:connector-curvature="0"
       sodipodi:nodetypes="cccc" />
  </g>
</svg>
