<?xml version="1.0" encoding="UTF-8" standalone="no"?>
<!-- Created with Inkscape (http://www.inkscape.org/) -->

<svg
   xmlns:dc="http://purl.org/dc/elements/1.1/"
   xmlns:cc="http://creativecommons.org/ns#"
   xmlns:rdf="http://www.w3.org/1999/02/22-rdf-syntax-ns#"
   xmlns:svg="http://www.w3.org/2000/svg"
   xmlns="http://www.w3.org/2000/svg"
   xmlns:sodipodi="http://sodipodi.sourceforge.net/DTD/sodipodi-0.dtd"
   xmlns:inkscape="http://www.inkscape.org/namespaces/inkscape"
   width="96"
   height="96"
   viewBox="0 0 25.399997 25.399999"
   version="1.1"
   id="svg1718"
   inkscape:version="0.92.2 2405546, 2018-03-11"
   sodipodi:docname="regulation_mana_2.svg">
  <defs
     id="defs1712">
    <mask
       maskUnits="userSpaceOnUse"
       id="mask1853">
      <rect
         style="opacity:1;vector-effect:none;fill:#ffffff;fill-opacity:1;stroke:none;stroke-width:2.64583325;stroke-linecap:round;stroke-linejoin:miter;stroke-miterlimit:4;stroke-dasharray:none;stroke-dashoffset:0;stroke-opacity:1;paint-order:markers stroke fill"
         id="rect1855"
         width="14.616189"
         height="42.31002"
         x="545.13489"
         y="-163.02531" />
    </mask>
  </defs>
  <sodipodi:namedview
     id="base"
     pagecolor="#ffffff"
     bordercolor="#666666"
     borderopacity="1.0"
     inkscape:pageopacity="0.0"
     inkscape:pageshadow="2"
     inkscape:zoom="3.959798"
     inkscape:cx="98.371992"
     inkscape:cy="46.601402"
     inkscape:document-units="px"
     inkscape:current-layer="layer1"
     showgrid="false"
     fit-margin-top="0"
     fit-margin-left="0"
     fit-margin-right="0"
     fit-margin-bottom="0"
     inkscape:window-width="1920"
     inkscape:window-height="1052"
     inkscape:window-x="0"
     inkscape:window-y="0"
     inkscape:window-maximized="1"
     inkscape:snap-global="false"
     units="px" />
  <metadata
     id="metadata1715">
    <rdf:RDF>
      <cc:Work
         rdf:about="">
        <dc:format>image/svg+xml</dc:format>
        <dc:type
           rdf:resource="http://purl.org/dc/dcmitype/StillImage" />
        <dc:title></dc:title>
      </cc:Work>
    </rdf:RDF>
  </metadata>
  <g
     inkscape:label="Layer 1"
     inkscape:groupmode="layer"
     id="layer1"
     transform="translate(-59.067602,-118.91057)">
    <path
       style="fill:#d2fff9;fill-opacity:1;stroke:#00e4c8;stroke-width:2.64583278;stroke-linecap:butt;stroke-linejoin:miter;stroke-miterlimit:4;stroke-dasharray:none;stroke-opacity:1;paint-order:markers stroke fill"
       d="m 71.633371,122.38459 -9.3489,7.76314 1.48152,7.91636 7.611944,3.67728 9.757593,-3.37085 -0.255435,-9.19319 -3.490755,-6.45066 z"
       id="path2857"
       inkscape:connector-curvature="0"
       sodipodi:nodetypes="cccccccc" />
    <path
       style="fill:none;stroke:#00e4c8;stroke-width:1.32291656;stroke-linecap:butt;stroke-linejoin:miter;stroke-opacity:1;stroke-miterlimit:4;stroke-dasharray:none"
       d="m 71.446321,121.82099 2.645833,6.75632 -3.354538,3.26004 -9.449404,-1.93712"
       id="path2859"
       inkscape:connector-curvature="0" />
    <path
       style="fill:none;stroke:#00e4c8;stroke-width:1.32291656;stroke-linecap:butt;stroke-linejoin:miter;stroke-opacity:1;stroke-miterlimit:4;stroke-dasharray:none"
       d="m 74.044907,128.6718 7.559523,0.51972"
       id="path2861"
       inkscape:connector-curvature="0" />
    <path
       style="fill:none;stroke:#00e4c8;stroke-width:1.32291656;stroke-linecap:butt;stroke-linejoin:miter;stroke-opacity:1;stroke-miterlimit:4;stroke-dasharray:none"
       d="m 70.737616,131.93185 0.377976,10.48884"
       id="path2863"
       inkscape:connector-curvature="0" />
    <path
       style="opacity:1;vector-effect:none;fill:#eafffd;fill-opacity:1;stroke:#00e4c8;stroke-width:5;stroke-linecap:butt;stroke-linejoin:round;stroke-miterlimit:4;stroke-dasharray:none;stroke-dashoffset:0;stroke-opacity:1;paint-order:markers stroke fill"
       d="M 29.025882,43.16755 C 21.340917,41.583889 15.056983,40.247987 15.061585,40.19888 15.06824,40.127854 37.272868,21.658842 43.977678,16.147513 l 1.561454,-1.283509 4.119316,10.479938 4.119314,10.479938 -5.211035,5.124934 c -2.866072,2.818714 -5.291395,5.118902 -5.389609,5.111527 -0.09822,-0.0074 -6.46627,-1.309129 -14.151236,-2.892791 z"
       id="path2867"
       inkscape:connector-curvature="0"
       transform="matrix(0.26458331,0,0,0.26458331,59.067602,118.91057)" />
    <path
       style="opacity:1;vector-effect:none;fill:#c7ffdf;fill-opacity:1;stroke:#00e4c8;stroke-width:5;stroke-linecap:butt;stroke-linejoin:round;stroke-miterlimit:4;stroke-dasharray:none;stroke-dashoffset:0;stroke-opacity:1;paint-order:markers stroke fill"
       d="M 69.393573,35.216704 C 63.62801,34.811837 58.837616,34.400537 58.748253,34.302706 58.570236,34.107821 50.467225,13.469775 50.543584,13.40574 c 0.151873,-0.127361 18.543282,1.107684 18.685682,1.254806 0.09506,0.09821 2.517658,4.517857 5.383548,9.821428 2.865889,5.303572 5.449489,10.064732 5.74133,10.580357 l 0.530621,0.9375 -0.504176,-0.0235 c -0.277297,-0.01293 -5.221456,-0.354757 -10.987016,-0.759627 z"
       id="path2871"
       inkscape:connector-curvature="0"
       transform="matrix(0.26458331,0,0,0.26458331,59.067602,118.91057)" />
    <path
       style="opacity:1;vector-effect:none;fill:#adfcff;fill-opacity:1;stroke:#00e4c8;stroke-width:5;stroke-linecap:butt;stroke-linejoin:round;stroke-miterlimit:4;stroke-dasharray:none;stroke-dashoffset:0;stroke-opacity:1;paint-order:markers stroke fill"
       d="m 47.956386,85.456148 c 9.6e-5,-0.153709 -0.288637,-8.206012 -0.641628,-17.894006 l -0.641802,-17.614535 3.072308,-3.007452 c 1.68977,-1.654099 4.109558,-4.005274 5.377308,-5.224834 l 2.304999,-2.217383 12.468481,0.853418 c 6.857666,0.46938 12.489577,0.871853 12.515359,0.894384 0.110745,0.09678 0.93048,32.144617 0.824808,32.246134 -0.06274,0.06027 -6.563263,2.336691 -14.44561,5.058712 -23.236868,8.02442 -20.834423,7.228121 -20.834223,6.905562 z"
       id="path2875"
       inkscape:connector-curvature="0"
       transform="matrix(0.26458331,0,0,0.26458331,59.067602,118.91057)" />
  </g>
</svg>
