<?xml version="1.0" encoding="UTF-8" standalone="no"?>
<!-- Created with Inkscape (http://www.inkscape.org/) -->

<svg
   xmlns:dc="http://purl.org/dc/elements/1.1/"
   xmlns:cc="http://creativecommons.org/ns#"
   xmlns:rdf="http://www.w3.org/1999/02/22-rdf-syntax-ns#"
   xmlns:svg="http://www.w3.org/2000/svg"
   xmlns="http://www.w3.org/2000/svg"
   xmlns:sodipodi="http://sodipodi.sourceforge.net/DTD/sodipodi-0.dtd"
   xmlns:inkscape="http://www.inkscape.org/namespaces/inkscape"
   width="96"
   height="96"
   viewBox="0 0 25.399997 25.399999"
   version="1.1"
   id="svg1718"
   inkscape:version="0.92.2 5c3e80d, 2017-08-06"
   sodipodi:docname="tricks_antispell.svg">
  <defs
     id="defs1712">
    <mask
       maskUnits="userSpaceOnUse"
       id="mask1853">
      <rect
         style="opacity:1;vector-effect:none;fill:#ffffff;fill-opacity:1;stroke:none;stroke-width:2.64583325;stroke-linecap:round;stroke-linejoin:miter;stroke-miterlimit:4;stroke-dasharray:none;stroke-dashoffset:0;stroke-opacity:1;paint-order:markers stroke fill"
         id="rect1855"
         width="14.616189"
         height="42.31002"
         x="545.13489"
         y="-163.02531" />
    </mask>
  </defs>
  <sodipodi:namedview
     id="base"
     pagecolor="#ffffff"
     bordercolor="#666666"
     borderopacity="1.0"
     inkscape:pageopacity="0.0"
     inkscape:pageshadow="2"
     inkscape:zoom="3.959798"
     inkscape:cx="74.056415"
     inkscape:cy="43.358253"
     inkscape:document-units="px"
     inkscape:current-layer="layer1"
     showgrid="false"
     fit-margin-top="0"
     fit-margin-left="0"
     fit-margin-right="0"
     fit-margin-bottom="0"
     inkscape:window-width="1920"
     inkscape:window-height="1035"
     inkscape:window-x="0"
     inkscape:window-y="1"
     inkscape:window-maximized="1"
     inkscape:snap-global="false"
     units="px" />
  <metadata
     id="metadata1715">
    <rdf:RDF>
      <cc:Work
         rdf:about="">
        <dc:format>image/svg+xml</dc:format>
        <dc:type
           rdf:resource="http://purl.org/dc/dcmitype/StillImage" />
        <dc:title />
      </cc:Work>
    </rdf:RDF>
  </metadata>
  <g
     inkscape:label="Layer 1"
     inkscape:groupmode="layer"
     id="layer1"
     transform="translate(-59.067602,-118.91057)">
    <path
       style="opacity:1;fill:#9f8d8d;fill-opacity:1;fill-rule:nonzero;stroke:none;stroke-width:0.37193018;stroke-linecap:round;stroke-miterlimit:4;stroke-dasharray:none;stroke-dashoffset:0;stroke-opacity:1;paint-order:markers stroke fill"
       id="path9768"
       d="m 75.480468,120.48811 c -0.06837,0.032 -0.138202,0.0622 -0.201346,0.0994 -0.05253,0.0173 -0.08882,0.051 -0.139577,0.0697 -0.0065,0.004 -0.01258,0.009 -0.01976,0.0117 -0.0061,0.003 -0.01396,0.003 -0.02004,0.006 -0.02694,0.0132 -0.04584,0.0314 -0.07582,0.0417 -0.06392,0.0406 0.02474,-0.0134 -0.03701,0.0176 -0.0061,0.003 -0.0098,0.007 -0.01595,0.0114 -0.0053,0.003 -0.01238,0.003 -0.01746,0.005 -0.04545,0.0257 0.01511,5.8e-4 -0.03063,0.0181 -0.04367,0.0409 0.01534,-0.0111 -0.02895,0.0189 -0.0054,0.003 -0.0075,0.009 -0.0127,0.0127 -0.0044,0.003 -0.01114,0.003 -0.01543,0.006 -0.03624,0.0255 0.01049,0.003 -0.02781,0.0197 -0.02508,0.007 -0.03372,0.0285 -0.04804,0.0437 -0.03888,0.0414 0.01518,-0.0307 -0.02373,0.024 -0.0048,0.003 -0.01015,0.004 -0.01401,0.009 -0.0048,0.004 -0.0065,0.01 -0.01142,0.0141 -0.0039,0.003 -0.01015,0.004 -0.01467,0.007 -0.0181,0.0116 -0.03182,0.0219 -0.04382,0.037 -0.03368,0.0213 -0.04972,0.051 -0.07668,0.0765 -0.003,0.0182 -0.02562,0.0272 -0.03708,0.0415 -0.0097,0.0123 -0.02289,0.0323 -0.03011,0.0455 -0.03393,0.0206 -0.04811,0.0474 -0.06572,0.0759 -0.0096,0.033 -0.02837,0.0641 -0.04147,0.0965 -0.0033,0.033 -0.02385,0.0629 -0.03275,0.0953 -0.0079,0.0367 -0.0082,0.074 -0.0088,0.11101 -3.31e-4,0.0396 -1.25e-4,0.0792 -3.4e-5,0.11889 9.3e-5,0.0397 1.17e-4,0.0795 1.32e-4,0.11911 1.2e-5,0.0396 1.1e-5,0.0793 9e-6,0.119 -0.0016,0.0358 0.0021,0.0716 1.76e-4,0.10734 0.0093,0.0362 0.01789,0.0725 0.0227,0.10912 0.0044,0.0401 0.0048,0.0803 0.005,0.12048 1.54e-4,0.0397 2.6e-5,0.0794 -3.4e-5,0.11923 -5.6e-5,0.0396 -6.9e-5,0.0794 -7.9e-5,0.119 -6e-6,0.0396 -3e-6,0.0793 -3e-6,0.11899 v 0.119 c 8.19e-4,0.0422 0.0016,0.084 -0.008,0.12574 -0.0056,0.0404 -0.02304,0.0789 -0.03481,0.11845 -0.0035,0.0365 -0.02457,0.07 -0.0318,0.10624 -0.01184,0.0404 -0.03071,0.0793 -0.04496,0.11919 -0.01839,0.0423 -0.04945,0.081 -0.06933,0.12308 -0.01769,0.0334 -0.04593,0.0605 -0.0774,0.0878 -0.01889,0.0359 -0.05271,0.0665 -0.07711,0.10038 -0.02671,0.0159 -0.03479,0.0396 -0.05394,0.0592 -0.0097,0.01 -0.02161,0.0185 -0.03139,0.0283 -0.0327,0.0347 -0.06902,0.0667 -0.105899,0.0991 -0.02733,0.033 -0.07125,0.0554 -0.102001,0.0864 -0.02326,0.009 -0.03545,0.0261 -0.05293,0.0392 -0.02271,0.017 -0.03604,0.019 -0.05832,0.0406 -0.04294,0.0356 -0.0884,0.0693 -0.132466,0.1039 -0.02636,0.0244 -0.06074,0.0416 -0.09355,0.0606 -0.06125,0.0358 0.01689,-0.003 -0.04087,0.0245 -0.06436,0.0519 0.02573,-0.0184 -0.03461,0.0222 -0.0057,0.003 -0.0088,0.009 -0.0145,0.0131 -0.0048,0.003 -0.0116,0.004 -0.01622,0.007 -0.01093,0.007 -0.01908,0.0172 -0.02999,0.0248 -0.03333,0.0149 -0.05514,0.04 -0.08613,0.0566 -0.007,0.003 -0.01539,0.005 -0.02309,0.009 -0.0069,0.004 -0.01372,0.007 -0.02058,0.0115 -0.0076,0.003 -0.01508,0.006 -0.02301,0.01 -0.0071,0.002 -0.01563,0.003 -0.02251,0.006 -0.02875,0.013 -0.0097,0.0111 -0.03708,0.0254 -0.01218,0.006 -0.02707,0.01 -0.04013,0.0155 -0.02791,0.0292 -0.0773,0.0372 -0.112112,0.0593 l -1.101652,0.45748 c -0.0065,0.003 -0.02644,0.0111 -0.01984,0.007 0.353397,-0.14579 1.408981,-0.58873 1.060214,-0.43736 -0.36372,0.15786 -0.733653,0.3084 -1.105095,0.45684 -0.348518,0.13927 1.356653,-0.59911 1.038077,-0.42718 -0.368223,0.15189 -0.734776,0.30586 -1.104665,0.45568 -0.008,0.003 -0.01878,3.7e-4 -0.02732,0.003 -0.0071,0.002 -0.02481,0.0129 -0.01815,0.01 0.355465,-0.14477 0.709503,-0.2913 1.064724,-0.43637 0.0071,-0.003 -0.01353,0.006 -0.02077,0.01 -0.368946,0.15103 -0.738508,0.3013 -1.107761,0.45194 1.433843,-0.58649 1.419745,-0.58173 -0.03852,0.0189 -0.152854,-0.0189 0.886515,-0.52531 -0.03522,-0.14618 -0.007,0.003 0.01461,-0.004 0.02164,-0.007 -0.134195,0.11363 1.657971,-0.68098 0.08701,-0.031 0.02292,-0.01 0.04369,-0.0216 0.06655,-0.0312 -0.861365,0.49741 1.461446,-0.60451 0.06144,-0.023 0.05725,-0.0225 -0.02304,0.0113 0.03362,-0.0212 0.0059,-0.003 0.01453,-0.003 0.02082,-0.006 0.0069,-0.003 0.01097,-0.009 0.01829,-0.0124 0.01402,-0.005 0.03358,-0.002 0.04478,-0.0126 0.0033,-0.003 0.02922,-0.0244 0.03397,-0.0265 0.0069,-0.003 0.01573,-0.003 0.02292,-0.005 0.02626,-0.009 0.03257,-0.0293 0.05976,-0.0378 0.03195,-0.0111 0.01679,-0.004 0.04515,-0.021 0.0083,-0.003 0.01843,-0.003 0.02717,-0.006 0.02593,-0.007 0.04278,-0.0225 0.06341,-0.0357 0.01092,-0.005 0.02455,-0.009 0.03421,-0.0161 0.0057,-0.004 0.0071,-0.01 0.0127,-0.0145 0.005,-0.003 0.01311,-0.004 0.01816,-0.007 0.04715,-0.0335 -0.01879,6e-4 0.03484,-0.0249 0.04234,-0.0393 -0.0087,0.004 0.04097,-0.0281 0.008,-0.005 0.01317,-0.0125 0.02119,-0.0177 0.02324,-0.0151 0.05595,-0.0204 0.07509,-0.0391 0.01531,-0.01 0.0325,-0.0182 0.04611,-0.0291 0.0079,-0.006 0.01296,-0.0144 0.02067,-0.0208 0.02049,-0.0173 0.0471,-0.0309 0.06841,-0.0476 0.03702,-0.0256 0.0058,-0.001 0.03485,-0.0341 0.01851,-0.0211 0.05486,-0.029 0.06949,-0.0532 0.02887,-0.012 0.02957,-0.0227 0.05156,-0.0378 0.0059,-0.004 0.01462,-0.005 0.02053,-0.01 0.05672,-0.0387 -0.02248,0.004 0.03917,-0.0273 0.01193,-0.0112 0.02138,-0.0238 0.03412,-0.0345 0.0053,-0.004 0.03452,-0.0212 0.03966,-0.026 0.0063,-0.005 0.0093,-0.0134 0.01508,-0.0197 0.0051,-0.005 0.01189,-0.01 0.01781,-0.0151 0.01026,-0.01 0.01762,-0.0215 0.02841,-0.0313 0.0082,-0.007 0.0249,-0.0132 0.03192,-0.0215 0.0049,-0.005 0.0068,-0.013 0.01015,-0.0194 0.0048,-0.005 0.0095,-0.0111 0.01416,-0.0164 0.03516,-0.0227 0.05598,-0.0587 0.08565,-0.0849 0.0098,-0.0238 0.0234,-0.0463 0.04706,-0.0648 0.0048,-0.003 0.01275,-0.005 0.01731,-0.009 0.0057,-0.004 0.0083,-0.0112 0.01252,-0.0169 0.03782,-0.032 0.04254,-0.0768 0.07841,-0.11022 0.02275,-0.0353 0.03325,-0.0744 0.04821,-0.11146 0.018,-0.0318 0.0082,-0.0698 0.03778,-0.0992 0.0031,-0.0214 0.0065,-0.0426 0.01371,-0.0636 0.0023,-0.006 0.005,-0.0128 0.0076,-0.0192 0.003,-0.005 0.0071,-0.0111 0.0091,-0.0162 0.0023,-0.006 0.0024,-0.0136 0.0036,-0.0206 0.0043,-0.0175 0.01392,-0.0355 0.0172,-0.0526 0.0036,-0.0194 -0.003,-0.04 0,-0.0595 l -10e-7,-0.119 c 0,-0.0396 -10e-7,-0.0793 0,-0.119 10e-7,-0.0398 4e-6,-0.0793 4e-5,-0.11906 4.4e-5,-0.0397 1.24e-4,-0.0793 2.14e-4,-0.11898 3.7e-5,-0.0383 2.63e-4,-0.0764 -0.0015,-0.11467 -0.0023,-0.0346 -0.0065,-0.0695 -0.02,-0.10305 -0.01265,-0.0391 -0.0043,-0.0795 -0.0065,-0.11943 10e-7,-0.0396 3e-6,-0.0793 3e-6,-0.11899 -10e-7,-0.0397 -10e-7,-0.0793 -4.9e-5,-0.11901 -5.7e-5,-0.0397 -1.61e-4,-0.0796 -3.5e-4,-0.11931 -1.53e-4,-0.0397 -5.52e-4,-0.0797 0.0013,-0.11952 0.0023,-0.0338 0.0021,-0.0709 0.02935,-0.0998 0.0024,-0.0191 0.0044,-0.0385 0.01213,-0.0569 0.0023,-0.005 0.0054,-0.01 0.0082,-0.0158 0.0036,-0.004 0.0088,-0.007 0.01093,-0.0128 0.003,-0.006 0.0027,-0.0141 0.004,-0.0211 0.0054,-0.019 0.01508,-0.0351 0.02248,-0.0533 0.007,-0.0172 0.0048,-0.0359 0.02262,-0.0504 0.03031,-0.0134 0.003,0.001 0.02579,-0.0219 0.0036,-0.004 0.01095,-0.005 0.01419,-0.01 0.0122,-0.0156 0.01026,-0.0345 0.036,-0.0443 0.0087,-0.0151 0.01999,-0.0322 0.03293,-0.0458 0.0036,-0.004 0.01097,-0.005 0.0142,-0.01 0.0085,-0.0111 0.0059,-0.0255 0.02028,-0.0344 0.02569,-0.0158 0.02886,-0.0383 0.05126,-0.0537 0.0044,-0.003 0.01208,-0.002 0.01644,-0.005 0.0051,-0.003 0.0074,-0.009 0.01104,-0.0133 0.03624,-0.013 -0.0033,0.004 0.02657,-0.0193 0.004,-0.003 0.01154,-0.003 0.0153,-0.006 0.0048,-0.004 0.0049,-0.01 0.0093,-0.0148 0.02553,-0.0261 0.0044,0.015 0.02084,-0.0269 0.03367,-0.0413 -0.01134,0.007 0.02769,-0.02 0.0053,-0.003 0.006,-0.01 0.01129,-0.014 0.0044,-0.003 0.01213,-0.003 0.01649,-0.006 0.03666,-0.0267 -0.01359,-0.004 0.02813,-0.0208 0.03301,-0.0396 -0.0098,0.006 0.02917,-0.0214 0.0057,-0.004 0.0071,-0.01 0.013,-0.0146 0.005,-0.003 0.01323,-0.004 0.01843,-0.007 0.04036,-0.0266 -0.01156,-0.004 0.03531,-0.0222 0.0058,-0.004 0.01026,-0.01 0.01734,-0.0135 0.0065,-0.003 0.01542,-0.003 0.02235,-0.006 0.0069,-0.003 0.01205,-0.007 0.01857,-0.0111 0.0061,-0.003 0.0137,-0.004 0.01923,-0.007 0.0065,-0.004 0.0097,-0.0111 0.01647,-0.0148 0.0065,-0.004 0.01484,-0.005 0.02226,-0.009 0.0398,-0.028 -8.93e-4,-0.003 0.04609,-0.0224 0.02567,-0.0111 0.04796,-0.0241 0.06965,-0.0385 0.008,-0.005 0.01668,-0.01 0.02501,-0.0153 0.04126,-0.0144 0.06158,-0.0289 0.09713,-0.0488 0.04593,-0.0257 0.02626,-0.01 0.0725,-0.0324 0.0096,-0.004 0.018,-0.01 0.02701,-0.0156 l 1.179429,-0.32921 z"
       inkscape:connector-curvature="0"
       sodipodi:nodetypes="ccccccccccccccccccccccccccccccccccccccccccccccccccccccccccccccccccccccccccccccccccccccccccccccccccccccccccccccccccccccccccccccccccccccccccccccccccccccccccccccccccccccccccccccccccccc" />
    <rect
       style="opacity:1;fill:#c6f9fd;fill-opacity:1;fill-rule:nonzero;stroke:#2b94ff;stroke-width:1.32291656;stroke-linecap:square;stroke-miterlimit:4;stroke-dasharray:none;stroke-dashoffset:0;stroke-opacity:1;paint-order:markers stroke fill"
       id="rect8440"
       width="6.4491062"
       height="9.8741436"
       x="67.970398"
       y="129.08458" />
    <ellipse
       style="opacity:1;fill:#c6f9fd;fill-opacity:1;fill-rule:nonzero;stroke:#2b94ff;stroke-width:1.32291656;stroke-linecap:square;stroke-miterlimit:4;stroke-dasharray:none;stroke-dashoffset:0;stroke-opacity:1;paint-order:markers stroke fill"
       id="path8438"
       cx="71.194954"
       cy="128.45245"
       rx="3.2231872"
       ry="1.7726953" />
    <path
       style="fill:none;fill-rule:evenodd;stroke:#000000;stroke-width:0.79374993;stroke-linecap:round;stroke-linejoin:miter;stroke-miterlimit:4;stroke-dasharray:none;stroke-opacity:1"
       d="m 71.068441,128.24836 c -0.03091,-1.78151 1.020126,-3.78227 1.020126,-3.78227"
       id="path8442"
       inkscape:connector-curvature="0" />
    <path
       style="fill:#e4dfdf;fill-opacity:1;fill-rule:evenodd;stroke:#959595;stroke-width:0.79374994;stroke-linecap:butt;stroke-linejoin:miter;stroke-miterlimit:4;stroke-dasharray:none;stroke-opacity:1"
       d="m 61.280412,138.90333 c -0.460531,-0.67853 -0.485698,-1.77517 0.567126,-2.16545 2.837446,-1.05187 6.291965,1.72441 9.648639,1.69263 3.17723,-0.0301 6.169564,-2.57364 9.0398,-1.77426 1.060394,0.29533 1.436912,1.25304 1.243173,1.93186 -0.196924,0.68998 -1.256217,1.26118 -2.285106,1.6155 -2.220189,0.76457 -5.019826,0.8145 -7.594614,0.82745 -2.566979,0.0129 -5.244216,-0.14348 -7.594614,-0.74865 -1.169367,-0.30108 -2.552217,-0.68337 -3.024404,-1.37908 z"
       id="path8728"
       inkscape:connector-curvature="0"
       sodipodi:nodetypes="aaaaaaaaa" />
  </g>
</svg>
