<?xml version="1.0" encoding="UTF-8" standalone="no"?>
<!-- Created with Inkscape (http://www.inkscape.org/) -->

<svg
   xmlns:dc="http://purl.org/dc/elements/1.1/"
   xmlns:cc="http://creativecommons.org/ns#"
   xmlns:rdf="http://www.w3.org/1999/02/22-rdf-syntax-ns#"
   xmlns:svg="http://www.w3.org/2000/svg"
   xmlns="http://www.w3.org/2000/svg"
   xmlns:sodipodi="http://sodipodi.sourceforge.net/DTD/sodipodi-0.dtd"
   xmlns:inkscape="http://www.inkscape.org/namespaces/inkscape"
   width="33.072922mm"
   height="41.01041mm"
   viewBox="0 0 33.072918 41.010412"
   version="1.1"
   id="svg1718"
   inkscape:version="0.92.2 2405546, 2018-03-11"
   sodipodi:docname="conjuration.svg">
  <defs
     id="defs1712" />
  <sodipodi:namedview
     id="base"
     pagecolor="#ffffff"
     bordercolor="#666666"
     borderopacity="1.0"
     inkscape:pageopacity="0.0"
     inkscape:pageshadow="2"
     inkscape:zoom="3.959798"
     inkscape:cx="58.390327"
     inkscape:cy="32.402462"
     inkscape:document-units="px"
     inkscape:current-layer="layer1"
     showgrid="false"
     fit-margin-top="0"
     fit-margin-left="0"
     fit-margin-right="0"
     fit-margin-bottom="0"
     inkscape:window-width="1920"
     inkscape:window-height="1052"
     inkscape:window-x="0"
     inkscape:window-y="0"
     inkscape:window-maximized="1"
     inkscape:snap-global="false" />
  <metadata
     id="metadata1715">
    <rdf:RDF>
      <cc:Work
         rdf:about="">
        <dc:format>image/svg+xml</dc:format>
        <dc:type
           rdf:resource="http://purl.org/dc/dcmitype/StillImage" />
        <dc:title />
      </cc:Work>
    </rdf:RDF>
  </metadata>
  <g
     inkscape:label="Layer 1"
     inkscape:groupmode="layer"
     id="layer1"
     transform="translate(-75.555164,-128.67109)">
    <g
       transform="translate(-80.464536,-126.99654)"
       style="stroke-width:0.13229167;stroke-miterlimit:4;stroke-dasharray:none"
       id="g5824-3-1">
      <rect
         style="opacity:1;vector-effect:none;fill:#ffffff;fill-opacity:1;stroke:none;stroke-width:0.13229167;stroke-linecap:round;stroke-linejoin:miter;stroke-miterlimit:4;stroke-dasharray:none;stroke-dashoffset:0;stroke-opacity:1;paint-order:markers stroke fill"
         id="rect5820-6-8"
         width="27.549011"
         height="8.7967224"
         x="160.22069"
         y="284.63135" />
      <path
         style="color:#000000;font-style:normal;font-variant:normal;font-weight:normal;font-stretch:normal;font-size:medium;line-height:normal;font-family:sans-serif;font-variant-ligatures:normal;font-variant-position:normal;font-variant-caps:normal;font-variant-numeric:normal;font-variant-alternates:normal;font-feature-settings:normal;text-indent:0;text-align:start;text-decoration:none;text-decoration-line:none;text-decoration-style:solid;text-decoration-color:#000000;letter-spacing:normal;word-spacing:normal;text-transform:none;writing-mode:lr-tb;direction:ltr;text-orientation:mixed;dominant-baseline:auto;baseline-shift:baseline;text-anchor:start;white-space:normal;shape-padding:0;clip-rule:nonzero;display:inline;overflow:visible;visibility:visible;opacity:1;isolation:auto;mix-blend-mode:normal;color-interpolation:sRGB;color-interpolation-filters:linearRGB;solid-color:#000000;solid-opacity:1;vector-effect:none;fill:#f74e00;fill-opacity:1;fill-rule:nonzero;stroke:none;stroke-width:2.64583325;stroke-linecap:round;stroke-linejoin:miter;stroke-miterlimit:4;stroke-dasharray:none;stroke-dashoffset:0;stroke-opacity:1;paint-order:markers stroke fill;color-rendering:auto;image-rendering:auto;shape-rendering:auto;text-rendering:auto;enable-background:accumulate"
         d="m 162.63428,255.66763 c -3.64159,0 -6.61458,2.97299 -6.61458,6.61458 v 27.78125 c 0,3.64159 2.97299,6.61458 6.61458,6.61458 h 23.8125 c 1.44291,0 2.64584,-1.20292 2.64584,-2.64583 v -0.6041 -0.71882 -6.87503 -1.20301 -26.31779 c 0,-1.4429 -1.20293,-2.64583 -2.64584,-2.64583 z m 0,2.64583 h 23.8125 v 26.31779 1.20301 6.87503 0.71882 0.6041 h -23.8125 c -2.22156,0 -3.96875,-1.74717 -3.96875,-3.96875 v -27.78125 c 0,-2.22157 1.74719,-3.96875 3.96875,-3.96875 z"
         id="rect5820-6-2-7"
         inkscape:connector-curvature="0" />
      <path
         style="opacity:1;vector-effect:none;fill:#ffcba5;fill-opacity:1;stroke:none;stroke-width:0.13229167;stroke-linecap:round;stroke-linejoin:miter;stroke-miterlimit:4;stroke-dasharray:none;stroke-dashoffset:0;stroke-opacity:1;paint-order:markers stroke fill"
         d="m 162.63417,256.99055 c -2.93158,0 -5.29165,2.36009 -5.29165,5.29167 v 27.78125 c 0,2.93158 2.36007,5.29167 5.29165,5.29167 h 23.81262 c 0.73289,0 1.32291,-0.59002 1.32291,-1.32292 v -1.32292 c 0,-0.70604 -0.61101,-1.32291 -1.32291,-1.32291 H 163.4579 c -1.17054,0.003 -2.12038,-0.94665 -2.12038,-2.1172 0,-1.17051 0.94984,-2.11894 2.12038,-2.11717 h 22.98889 c 0.71487,0 1.32291,-0.6129 1.32291,-1.31773 v -27.52082 c 0,-0.7329 -0.59002,-1.32292 -1.32291,-1.32292 z"
         id="rect1865-0-2-6-9"
         inkscape:connector-curvature="0"
         sodipodi:nodetypes="cssccscccscccccc" />
    </g>
    <path
       sodipodi:nodetypes="ccccc"
       inkscape:connector-curvature="0"
       id="path1813-3-2"
       d="m 90.943548,154.35411 c -1.30789,-4.73921 1.42438,-4.01567 1.95574,-9.82853 2.34666,3.12758 1.20118,6.98679 0.47316,10.00342 2.95942,-0.58666 6.54352,-9.86103 -1.48258,-18.99251 -5.485697,12.96339 -4.455406,15.99761 -0.94632,18.81762 z"
       style="fill:#ffedb2;fill-opacity:1;stroke:#f74e00;stroke-width:2.64583325;stroke-linecap:butt;stroke-linejoin:miter;stroke-miterlimit:4.0999999;stroke-dasharray:none;stroke-opacity:1;paint-order:markers stroke fill" />
  </g>
</svg>
