<?xml version="1.0" encoding="UTF-8" standalone="no"?>
<!-- Created with Inkscape (http://www.inkscape.org/) -->

<svg
   xmlns:dc="http://purl.org/dc/elements/1.1/"
   xmlns:cc="http://creativecommons.org/ns#"
   xmlns:rdf="http://www.w3.org/1999/02/22-rdf-syntax-ns#"
   xmlns:svg="http://www.w3.org/2000/svg"
   xmlns="http://www.w3.org/2000/svg"
   xmlns:sodipodi="http://sodipodi.sourceforge.net/DTD/sodipodi-0.dtd"
   xmlns:inkscape="http://www.inkscape.org/namespaces/inkscape"
   width="13.798059mm"
   height="16.936216mm"
   viewBox="0 0 13.798058 16.936216"
   version="1.1"
   id="svg1718"
   inkscape:version="0.92.2 2405546, 2018-03-11"
   sodipodi:docname="conjuration.svg">
  <defs
     id="defs1712" />
  <sodipodi:namedview
     id="base"
     pagecolor="#ffffff"
     bordercolor="#666666"
     borderopacity="1.0"
     inkscape:pageopacity="0.0"
     inkscape:pageshadow="2"
     inkscape:zoom="3.959798"
     inkscape:cx="25.617319"
     inkscape:cy="-5.4672511"
     inkscape:document-units="mm"
     inkscape:current-layer="layer1"
     showgrid="false"
     fit-margin-top="0"
     fit-margin-left="0"
     fit-margin-right="0"
     fit-margin-bottom="0"
     inkscape:window-width="1920"
     inkscape:window-height="1052"
     inkscape:window-x="0"
     inkscape:window-y="0"
     inkscape:window-maximized="1" />
  <metadata
     id="metadata1715">
    <rdf:RDF>
      <cc:Work
         rdf:about="">
        <dc:format>image/svg+xml</dc:format>
        <dc:type
           rdf:resource="http://purl.org/dc/dcmitype/StillImage" />
        <dc:title></dc:title>
      </cc:Work>
    </rdf:RDF>
  </metadata>
  <g
     inkscape:label="Layer 1"
     inkscape:groupmode="layer"
     id="layer1"
     transform="translate(-62.525319,-138.2903)">
    <path
       style="fill:#9c5dbc;fill-opacity:1;stroke:#efdde8;stroke-width:1.70000005;stroke-miterlimit:4;stroke-dasharray:none;stroke-opacity:1;paint-order:markers stroke fill"
       d="m 65.001796,154.2437 c -0.63931,-0.19447 -1.14743,-0.64541 -1.43498,-1.27349 l -0.19085,-0.41688 0.0218,-6.24588 0.0218,-6.24587 0.23409,-0.30687 c 0.48466,-0.63536 0.22206,-0.61009 6.36094,-0.6121 l 5.45865,-0.002 v 6.08772 6.08772 h -5.07935 -5.07935 l -0.23726,0.23726 c -0.31488,0.31489 -0.31503,0.64716 -3.1e-4,0.99929 l 0.23682,0.26509 5.07979,0.0221 5.079791,0.0221 v 0.72874 0.72874 l -5.133981,-0.007 c -2.82369,-0.004 -5.22553,-0.0348 -5.33742,-0.0689 z m 8.26258,-11.30819 -0.0233,-0.75082 -3.06415,-0.0213 -3.06415,-0.0213 v 0.77209 0.77208 h 3.087489 3.08749 z"
       id="path1231"
       inkscape:connector-curvature="0" />
  </g>
</svg>
